<svg width="21" height="20" viewBox="0 0 21 20" fill="none" xmlns="http://www.w3.org/2000/svg">
<g clip-path="url(#clip0_466_447)">
<path fill-rule="evenodd" clip-rule="evenodd" d="M17.7475 14.8931C16.5506 14.495 15.2638 14.1975 13.9094 14.005C14.0938 12.9219 14.1919 11.7869 14.2231 10.625H19.2263C19.1144 12.2006 18.585 13.6587 17.7475 14.8931ZM12.6463 18.4744C13.0625 17.4688 13.4031 16.3819 13.665 15.2369C14.7887 15.4031 15.8662 15.6488 16.8869 15.9713C15.7594 17.1731 14.2956 18.0575 12.6463 18.4744ZM11.1069 18.7194C10.9056 18.7337 10.705 18.75 10.5 18.75C10.295 18.75 10.095 18.7337 9.89313 18.7194C9.36125 17.6119 8.93063 16.3794 8.61188 15.0713C9.23313 15.0169 9.8625 14.985 10.5 14.985C11.1375 14.985 11.7669 15.0169 12.3888 15.0713C12.0694 16.3794 11.6387 17.6119 11.1069 18.7194ZM4.11313 15.9713C5.13375 15.6488 6.21125 15.4031 7.335 15.2369C7.59688 16.3819 7.9375 17.4688 8.35375 18.4744C6.70437 18.0575 5.24125 17.1731 4.11313 15.9713ZM3.2525 14.8931C2.415 13.6587 1.88562 12.2006 1.77375 10.625H6.77687C6.80812 11.7869 6.90625 12.9219 7.09062 14.005C5.73625 14.1975 4.44938 14.495 3.2525 14.8931ZM3.2525 5.10689C4.44938 5.50501 5.73625 5.80311 7.09062 5.99499C6.90625 7.07811 6.80812 8.21313 6.77687 9.375H1.77375C1.88562 7.79938 2.415 6.34126 3.2525 5.10689ZM8.35375 1.52561C7.9375 2.53124 7.59688 3.61811 7.335 4.76311C6.21125 4.59748 5.13375 4.35124 4.11313 4.02874C5.24125 2.82686 6.70437 1.94249 8.35375 1.52561ZM9.89313 1.28063C10.095 1.26688 10.295 1.25 10.5 1.25C10.705 1.25 10.9056 1.26688 11.1069 1.28063C11.6387 2.38813 12.0694 3.62124 12.3888 4.92874C11.7669 4.98312 11.1375 5.01499 10.5 5.01499C9.8625 5.01499 9.23313 4.98312 8.61188 4.92874C8.93063 3.62124 9.36125 2.38813 9.89313 1.28063ZM12.9712 10.625C12.9375 11.7256 12.8375 12.8081 12.6494 13.8475C11.9456 13.7863 11.23 13.75 10.5 13.75C9.77 13.75 9.05437 13.7863 8.35125 13.8475C8.1625 12.8081 8.0625 11.7256 8.02937 10.625H12.9712ZM8.02937 9.375C8.0625 8.27437 8.1625 7.19187 8.35125 6.1525C9.05437 6.21375 9.77 6.25 10.5 6.25C11.23 6.25 11.9456 6.21375 12.6488 6.1525C12.8375 7.19187 12.9375 8.27437 12.9712 9.375H8.02937ZM16.8869 4.02874C15.8662 4.35124 14.7887 4.59748 13.665 4.76311C13.4031 3.61811 13.0625 2.53124 12.6463 1.52561C14.2956 1.94249 15.7594 2.82686 16.8869 4.02874ZM17.7475 5.10689C18.585 6.34126 19.1144 7.79938 19.2263 9.375H14.2231C14.1919 8.21313 14.0938 7.07811 13.9094 5.99499C15.2638 5.80311 16.5506 5.50501 17.7475 5.10689ZM10.5 0C4.9775 0 0.5 4.47688 0.5 10C0.5 15.5231 4.9775 20 10.5 20C16.0225 20 20.5 15.5231 20.5 10C20.5 4.47688 16.0225 0 10.5 0Z" fill="black"/>
</g>
<defs>
<clipPath id="clip0_466_447">
<rect width="20" height="20" fill="white" transform="translate(0.5)"/>
</clipPath>
</defs>
</svg>
