<svg width="20" height="20" viewBox="0 0 20 20" fill="none" xmlns="http://www.w3.org/2000/svg">
<path d="M1.11111 9.18128C0.497467 9.18128 0 9.67222 0 10.2778C0 10.8833 0.497467 11.3743 1.11111 11.3743V9.18128ZM18.8889 11.3743C19.5025 11.3743 20 10.8833 20 10.2778C20 9.67222 19.5025 9.18128 18.8889 9.18128V11.3743ZM1.11111 15.0292C0.497467 15.0292 0 15.5202 0 16.1257C0 16.7313 0.497467 17.2222 1.11111 17.2222V15.0292ZM18.8889 17.2222C19.5025 17.2222 20 16.7313 20 16.1257C20 15.5202 19.5025 15.0292 18.8889 15.0292V17.2222ZM1.11111 3.33333C0.497467 3.33333 0 3.82425 0 4.42982C0 5.03539 0.497467 5.52631 1.11111 5.52631V3.33333ZM18.8889 5.52631C19.5025 5.52631 20 5.03539 20 4.42982C20 3.82425 19.5025 3.33333 18.8889 3.33333V5.52631ZM1.11111 11.3743H18.8889V9.18128H1.11111V11.3743ZM1.11111 17.2222H18.8889V15.0292H1.11111V17.2222ZM1.11111 5.52631H18.8889V3.33333H1.11111V5.52631Z" fill="black"/>
</svg>
