<svg width="20" height="20" viewBox="0 0 20 20" fill="none" xmlns="http://www.w3.org/2000/svg">
<path d="M10 1.66666C7.81669 1.66666 6.04169 3.44166 6.04169 5.62499C6.04169 7.76666 7.71669 9.49999 9.90002 9.57499C9.96669 9.56666 10.0334 9.56666 10.0834 9.57499C10.1 9.57499 10.1084 9.57499 10.125 9.57499C10.1334 9.57499 10.1334 9.57499 10.1417 9.57499C12.275 9.49999 13.95 7.76666 13.9584 5.62499C13.9584 3.44166 12.1834 1.66666 10 1.66666Z" fill="black"/>
<path d="M14.2341 11.7916C11.9091 10.2416 8.11743 10.2416 5.77576 11.7916C4.71743 12.4999 4.13409 13.4583 4.13409 14.4833C4.13409 15.5083 4.71743 16.4583 5.76743 17.1583C6.93409 17.9416 8.46739 18.3333 10.0007 18.3333C11.5341 18.3333 13.0674 17.9416 14.2341 17.1583C15.2841 16.4499 15.8674 15.4999 15.8674 14.4666C15.8591 13.4416 15.2841 12.4916 14.2341 11.7916Z" fill="black"/>
</svg>
