<svg id="Layer_1" data-name="Layer 1" xmlns="http://www.w3.org/2000/svg" viewBox="0 0 1973.4 2203.79"><defs><style>.cls-1{fill:#bb9b6c;}.cls-2{fill:#a95858;}.cls-3{fill:#7a2534;}.cls-4{fill:#6b8269;}.cls-5{fill:#7c2433;}.cls-6{fill:#68826b;}.cls-7{fill:#bb9a65;}.cls-8{fill:#ac565d;}.cls-9{fill:#782534;}.cls-10{fill:#792432;}.cls-11{fill:#fff;}.cls-12{fill:#fdfeff;}.cls-13,.cls-14{fill:none;stroke:#792432;stroke-miterlimit:10;}.cls-13{stroke-width:20px;}.cls-14{stroke-width:0.4px;}</style></defs><polygon class="cls-1" points="201.72 193.36 1015.52 193.36 1015.52 685.36 201.72 685.36 201.72 577.93 372.31 577.93 372.31 537.11 201.72 537.11 201.72 452.25 367.7 452.25 367.7 412.5 201.72 412.5 201.72 326.56 367.7 326.56 367.7 283.6 201.72 283.6 201.72 193.36"/><polygon class="cls-2" points="1594.59 18.85 1589.12 777.23 1065.81 773.93 1066.67 15.54 1181.94 16.27 1180.79 175.25 1224.59 175.52 1225.74 16.54 1316.8 17.11 1315.68 171.79 1358.33 172.06 1359.45 17.38 1451.66 17.95 1450.55 172.64 1496.65 172.93 1497.77 18.24 1594.59 18.85"/><polygon class="cls-3" points="1771.68 825 957.88 825 957.88 1317 1771.68 1317 1771.68 1209.58 1601.09 1209.58 1601.09 1168.76 1771.68 1168.76 1771.68 1083.89 1605.69 1083.89 1605.69 1044.15 1771.68 1044.15 1771.68 958.21 1605.69 958.21 1605.69 915.24 1771.68 915.24 1771.68 825"/><polygon class="cls-4" points="393.48 1490.51 388.05 732.12 915.97 728.84 921.4 1487.23 806.13 1487.94 804.99 1328.96 761.19 1329.23 762.33 1488.22 671.27 1488.78 670.16 1334.1 627.51 1334.36 628.62 1489.05 536.41 1489.62 535.3 1334.93 489.19 1335.22 490.3 1489.9 393.48 1490.51"/><rect class="cls-5" x="201.72" y="842.19" width="129.1" height="451.17"/><rect class="cls-6" x="388.05" width="500.67" height="129.98"/><rect class="cls-7" x="1648.34" y="193.36" width="123.34" height="481.25"/><rect class="cls-8" x="1082.37" y="1366.41" width="493.35" height="124.09"/><ellipse class="cls-9" cx="1781.01" cy="1950.95" rx="192.39" ry="179.29"/><path class="cls-10" d="M2063.05,2386.73l-33.85-46.57H1879.28v-302s-355.24-51.59-308.69,315.55c1.94,15.34,15.82,27,32.39,27h218.27s-8.23,99.15-42.8,117.18H1847s26.5-73.55,29-112.67Zm-241.89-49.57H1606.85c-4.84-283.93,214.31-257.29,214.31-257.29Z" transform="translate(-395.7 -294.11)"/><rect class="cls-10" x="1053.25" y="1635.93" width="45.06" height="450.68"/><path class="cls-10" d="M1125.62,2047.74c-74.06,0-140.57,19.62-186.15,69.82l33,28c37.72-37.89,89.82-49.3,147.37-49.3,115.1,0,208.41,93.73,208.41,209.35a210,210,0,0,1-8.39,58.84l19.35-27.3H850.82V1930h-58v450.68h527.12v-1.12l38.39-2.3a237.81,237.81,0,0,0,16.12-86.32C1374.42,2156.64,1263,2047.74,1125.62,2047.74Z" transform="translate(-395.7 -294.11)"/><ellipse class="cls-10" cx="138.22" cy="1668.85" rx="35.32" ry="32.92"/><ellipse class="cls-10" cx="723.23" cy="1668.85" rx="35.32" ry="32.92"/><ellipse class="cls-10" cx="246.05" cy="1668.85" rx="35.32" ry="32.92"/><path class="cls-10" d="M715.41,2035.72s-374.21-27.1-312.93,307.76c3.93,21.46,23.8,37.24,47.16,37.24H715.41Z" transform="translate(-395.7 -294.11)"/><path class="cls-11" d="M671.89,2079.2s-246.64-1.94-227.3,258h227.3Z" transform="translate(-395.7 -294.11)"/><ellipse class="cls-12" cx="1781.01" cy="1950.95" rx="145.57" ry="135.66"/><path class="cls-13" d="M1677.7,2027.43c4.83-15.77,72.54-18,72.54-18h-28.19c-13,0-24.66-8.59-26.29-20.57-3.55-26,42.39-24.5,42.39-24.5" transform="translate(-395.7 -294.11)"/><path class="cls-14" d="M1665.69,2017.92" transform="translate(-395.7 -294.11)"/></svg>