<svg id="Layer_1" data-name="Layer 1" xmlns="http://www.w3.org/2000/svg" viewBox="0 0 1762.9 2149.04"><defs><style>.cls-1{fill:#bb9b6c;}.cls-2{fill:#a85757;}.cls-3{fill:#792332;}.cls-4{fill:#6b8168;}.cls-5{fill:#7a2332;}.cls-6{fill:#688269;}.cls-7{fill:#bc9b66;}.cls-8{fill:#ab555c;}</style></defs><polygon class="cls-1" points="24.44 222.86 898.54 222.86 898.54 789.9 24.44 789.9 24.44 666.1 207.68 666.1 207.68 619.05 24.44 619.05 24.44 521.24 202.73 521.24 202.73 475.43 24.44 475.43 24.44 376.38 202.73 376.38 202.73 326.86 24.44 326.86 24.44 222.86"/><polygon class="cls-2" points="1520.51 21.72 1514.64 895.8 952.56 891.99 953.48 17.91 1077.29 18.75 1076.06 201.98 1123.1 202.3 1124.33 19.06 1222.14 19.72 1220.94 198 1266.75 198.31 1267.95 20.03 1366.99 20.69 1365.8 198.97 1415.32 199.31 1416.52 21.02 1520.51 21.72"/><polygon class="cls-3" points="1710.73 950.86 836.63 950.86 836.63 1517.9 1710.73 1517.9 1710.73 1394.1 1527.49 1394.1 1527.49 1347.05 1710.73 1347.05 1710.73 1249.24 1532.44 1249.24 1532.44 1203.43 1710.73 1203.43 1710.73 1104.38 1532.44 1104.38 1532.44 1054.86 1710.73 1054.86 1710.73 950.86"/><polygon class="cls-4" points="230.41 1717.88 224.58 843.8 791.62 840.02 797.44 1714.1 673.64 1714.93 672.41 1531.69 625.37 1532.01 626.59 1715.24 528.78 1715.89 527.59 1537.61 481.79 1537.91 482.97 1716.2 383.93 1716.86 382.74 1538.57 333.22 1538.9 334.4 1717.19 230.41 1717.88"/><rect class="cls-5" x="24.44" y="970.67" width="138.67" height="520"/><rect class="cls-6" x="224.58" width="537.76" height="149.81"/><rect class="cls-7" x="1578.25" y="222.86" width="132.48" height="554.67"/><rect class="cls-8" x="970.35" y="1574.86" width="529.9" height="143.02"/><path class="cls-3" d="M530.21,2454.34q-9.81,0-15.06-5.61t-5.26-15.41V2222.77q0-10.17,5.61-15.6t15.41-5.42q8.76,0,13.84,3.32t9.28,11.39l86.54,160.1H629.36l86.53-160.1q4.2-8.05,9.11-11.39t13.66-3.32q9.81,0,15.07,5.42t5.25,15.6v210.55q0,9.81-5.08,15.41t-15.24,5.61q-9.81,0-15.06-5.61t-5.26-15.41V2271.11h7.71l-73.57,134.18a28.49,28.49,0,0,1-7.36,8.76q-3.86,2.8-10.51,2.8t-10.86-3a25.88,25.88,0,0,1-7.36-8.59l-74.27-134.53h8.41v162.56q0,9.81-5.08,15.41T530.21,2454.34Z" transform="translate(-509.89 -306)"/><path class="cls-3" d="M924,2455q-35.73,0-62.53-15.76A107.2,107.2,0,0,1,819.94,2395q-14.72-28.56-14.71-67.09,0-29.09,8.4-52.38a114.6,114.6,0,0,1,24-39.94A105,105,0,0,1,875.12,2210Q897,2201,924,2201q36.07,0,62.71,15.59t41.34,44q14.71,28.38,14.72,66.92,0,29.08-8.41,52.55a116.07,116.07,0,0,1-24,40.29,104.08,104.08,0,0,1-37.49,25.75Q951,2455,924,2455Zm0-38.54q22.77,0,38.71-10.51t24.53-30.48q8.58-20,8.58-47.64,0-42-18.74-65.17T924,2239.58q-22.43,0-38.54,10.34t-24.7,30.13q-8.58,19.78-8.58,47.82,0,41.68,18.92,65.16T924,2416.5Z" transform="translate(-509.89 -306)"/><path class="cls-3" d="M1085.49,2454.34q-8.4,0-13.48-3.85a15.6,15.6,0,0,1-6.13-10.34q-1.07-6.48,2.45-14.54l92.49-205q4.54-10.15,11-14.54a26,26,0,0,1,14.89-4.37,25.45,25.45,0,0,1,14.54,4.37q6.48,4.4,11,14.54l92.84,205q3.84,8.07,2.8,14.72a15.31,15.31,0,0,1-6,10.33q-4.9,3.68-13,3.68-9.81,0-15.24-4.73t-9.63-14.54l-22.78-52.9,18.92,12.26H1112.47l18.92-12.26-22.42,52.9q-4.56,10.17-9.46,14.72T1085.49,2454.34ZM1186,2253.25l-49,116.66-9.11-11.21h117l-8.76,11.21-49.4-116.66Z" transform="translate(-509.89 -306)"/><path class="cls-3" d="M1366.11,2454.34q-10.86,0-16.64-6.13t-5.78-17v-206.7q0-11.22,5.78-17t16.64-5.78q10.86,0,16.64,5.78t5.78,17v89.33h.7L1489.78,2213a43.72,43.72,0,0,1,11.21-8.41,27.76,27.76,0,0,1,12.61-2.8q10.17,0,14.54,5.25a15.39,15.39,0,0,1,3.51,12.26q-.89,7-6.84,13l-102.29,101.25.35-20.32,106.85,108.61q7.35,7,7.71,14.71a16.25,16.25,0,0,1-4.73,12.79q-5.09,5.07-14.89,5.08-8.41,0-13.49-3.5a88.39,88.39,0,0,1-11.74-10.16l-103.35-103.35h-.7v93.89q0,10.86-5.6,17T1366.11,2454.34Z" transform="translate(-509.89 -306)"/><path class="cls-3" d="M1599.08,2454.34q-10.86,0-16.64-6.13t-5.78-17V2224.87q0-11.2,5.78-17.17t16.64-5.95q10.86,0,16.65,5.95t5.78,17.17v82.68h127.17v-82.68q0-11.2,5.78-17.17t16.64-5.95q10.86,0,16.64,5.95t5.78,17.17v206.35q0,10.86-5.78,17t-16.64,6.13q-10.86,0-16.64-6.13t-5.78-17V2345H1621.51v86.19q0,10.86-5.61,17T1599.08,2454.34Z" transform="translate(-509.89 -306)"/><path class="cls-3" d="M1849.93,2454.34q-8.42,0-13.49-3.85a15.6,15.6,0,0,1-6.13-10.34q-1.05-6.48,2.45-14.54l92.49-205q4.55-10.15,11-14.54a26,26,0,0,1,14.88-4.37,25.45,25.45,0,0,1,14.54,4.37q6.48,4.4,11,14.54l92.84,205q3.85,8.07,2.8,14.72a15.34,15.34,0,0,1-5.95,10.33q-4.92,3.68-13,3.68-9.81,0-15.24-4.73t-9.63-14.54l-22.77-52.9,18.92,12.26H1876.9l18.92-12.26-22.42,52.9q-4.56,10.17-9.46,14.72T1849.93,2454.34Zm100.54-201.09-49,116.66-9.11-11.21h117l-8.76,11.21-49.4-116.66Z" transform="translate(-509.89 -306)"/><path class="cls-3" d="M2162.78,2454.34q-10.86,0-16.64-6.13t-5.78-17V2242H2072q-9.11,0-14.19-5.08t-5.08-13.83q0-9.12,5.08-13.84t14.19-4.73h181.48q9.11,0,14.19,4.73t5.08,13.84q0,8.76-5.08,13.83t-14.19,5.08H2185.2v189.19q0,10.86-5.6,17T2162.78,2454.34Z" transform="translate(-509.89 -306)"/></svg>