<svg width="14" height="14" viewBox="0 0 14 14" fill="none" xmlns="http://www.w3.org/2000/svg">
<path fill-rule="evenodd" clip-rule="evenodd" d="M7.58333 2.04159C7.58333 1.71942 7.32217 1.45825 7 1.45825C6.67782 1.45825 6.41667 1.71942 6.41667 2.04159V2.36779C5.73414 2.44958 5.10613 2.67455 4.60608 3.01995C3.96405 3.46343 3.5 4.13591 3.5 4.95825C3.5 5.70141 3.78681 6.39156 4.42038 6.87893C4.92005 7.26329 5.59279 7.48904 6.41667 7.55933V10.4544C5.95939 10.3811 5.56527 10.2245 5.26914 10.02C4.85554 9.73423 4.66667 9.38593 4.66667 9.04158C4.66667 8.71941 4.4055 8.45825 4.08333 8.45825C3.76117 8.45825 3.5 8.71941 3.5 9.04158C3.5 9.86391 3.96405 10.5364 4.60608 10.9799C5.10613 11.3253 5.73414 11.5503 6.41667 11.6321V11.9583C6.41667 12.2804 6.67782 12.5416 7 12.5416C7.32217 12.5416 7.58333 12.2804 7.58333 11.9583V11.6336C8.26128 11.5558 8.8886 11.3414 9.39015 11.0007C10.0405 10.559 10.5 9.88369 10.5 9.04158C10.5 8.2794 10.2167 7.58454 9.57588 7.09978C9.07492 6.72085 8.40228 6.50607 7.58333 6.43933V3.54549C8.04061 3.61872 8.43477 3.77533 8.73087 3.97988C9.14445 4.26557 9.33333 4.61393 9.33333 4.95825C9.33333 5.28042 9.59449 5.54158 9.91667 5.54158C10.2388 5.54158 10.5 5.28042 10.5 4.95825C10.5 4.13591 10.036 3.46343 9.39394 3.01996C8.89391 2.67455 8.26589 2.44957 7.58333 2.36779V2.04159ZM6.41667 3.5455C5.95939 3.61873 5.56527 3.77534 5.26914 3.97989C4.85554 4.26557 4.66667 4.61393 4.66667 4.95825C4.66667 5.38176 4.81737 5.71242 5.13171 5.95424C5.39173 6.15426 5.80237 6.32232 6.41667 6.38754V3.5455ZM7.58333 7.61067V10.4569C8.04481 10.387 8.43978 10.2359 8.73466 10.0356C9.13996 9.76031 9.33333 9.4148 9.33333 9.04158C9.33333 8.58845 9.1791 8.26249 8.87209 8.03026C8.61338 7.83461 8.2026 7.67291 7.58333 7.61067Z" fill="white"/>
</svg>
