<svg width="20" height="20" viewBox="0 0 20 20" fill="none" xmlns="http://www.w3.org/2000/svg">
<path d="M18.5713 5.99628C18.5713 6.29123 18.4681 6.54194 18.2617 6.74842L10.2543 14.7557L8.75012 16.2598C8.54368 16.4663 8.29299 16.5696 7.99805 16.5696C7.70312 16.5696 7.45243 16.4663 7.24598 16.2598L5.74182 14.7557L1.73814 10.752C1.53169 10.5456 1.42847 10.2949 1.42847 9.99999C1.42847 9.70504 1.53169 9.45432 1.73814 9.24785L3.2423 7.7437C3.44874 7.53732 3.69943 7.43413 3.99437 7.43413C4.2893 7.43413 4.53999 7.53732 4.74644 7.7437L7.99805 11.0064L15.2534 3.74013C15.4598 3.53366 15.7105 3.43042 16.0054 3.43042C16.3004 3.43042 16.551 3.53366 16.7575 3.74013L18.2617 5.24428C18.4681 5.45066 18.5713 5.70132 18.5713 5.99628Z" fill="black"/>
</svg>
