<svg width="17" height="16" viewBox="0 0 17 16" fill="none" xmlns="http://www.w3.org/2000/svg">
<path d="M15.3571 4.79707C15.3571 5.03303 15.2745 5.2336 15.1094 5.39878L8.70346 11.8046L7.50015 13.0079C7.33499 13.1731 7.13444 13.2557 6.89849 13.2557C6.66254 13.2557 6.46199 13.1731 6.29683 13.0079L5.09351 11.8046L1.89056 8.60164C1.7254 8.43654 1.64282 8.236 1.64282 8.00004C1.64282 7.76408 1.7254 7.56351 1.89056 7.39833L3.09389 6.19501C3.25904 6.02991 3.4596 5.94736 3.69554 5.94736C3.93149 5.94736 4.13204 6.02991 4.2972 6.19501L6.89849 8.80518L12.7027 2.99216C12.8679 2.82698 13.0684 2.74438 13.3044 2.74438C13.5403 2.74438 13.7409 2.82698 13.906 2.99216L15.1094 4.19547C15.2745 4.36058 15.3571 4.56111 15.3571 4.79707Z" fill="black"/>
</svg>
