<svg width="38" height="24" viewBox="0 0 38 24" fill="none" xmlns="http://www.w3.org/2000/svg">
<path d="M33.7778 0H4.22222C3.10242 0 2.02848 0.38901 1.23666 1.08145C0.44484 1.77389 0 2.71305 0 3.69231L0 20.3077C0 21.287 0.44484 22.2261 1.23666 22.9185C2.02848 23.611 3.10242 24 4.22222 24H33.7778C34.8976 24 35.9715 23.611 36.7633 22.9185C37.5552 22.2261 38 21.287 38 20.3077V3.69231C38 2.71305 37.5552 1.77389 36.7633 1.08145C35.9715 0.38901 34.8976 0 33.7778 0Z" fill="#006C35"/>
<path d="M9.41463 8.35414C10.0817 8.40953 9.71336 7.36737 9.95508 7.17814C10.0005 7.08491 10.0849 7.08399 10.0912 7.20214V8.08645C10.0849 8.37445 10.3013 8.45845 10.4691 8.51845C10.6444 8.50645 10.7605 8.51199 10.8291 8.6606L10.9114 10.1911C10.9114 10.1911 11.3167 10.2926 11.3357 9.32983C11.3558 8.76491 11.207 8.29229 11.2946 8.18245C11.2977 8.07445 11.455 8.06799 11.5648 8.1206C11.739 8.22768 11.8171 8.3606 12.0873 8.30799C12.5 8.20922 12.747 8.03383 12.7534 7.75691C12.7291 7.49383 12.6953 7.23076 12.5655 6.96768C12.5834 6.91968 12.4863 6.79599 12.5042 6.74799C12.5781 6.84953 12.6911 6.84122 12.7164 6.74799C12.6467 6.54583 12.538 6.35199 12.3607 6.26799C12.215 6.15537 12.0018 6.17845 11.9237 6.41291C11.8878 6.68245 12.0356 7.00368 12.2594 7.26491C12.3069 7.36737 12.3744 7.53722 12.3449 7.69045C12.2256 7.74953 12.1052 7.72553 12.006 7.63322C12.006 7.63322 11.6777 7.41814 11.6777 7.37014C11.7654 6.88276 11.6978 6.82737 11.6492 6.6926C11.6155 6.50614 11.5141 6.44614 11.4318 6.31876C11.3495 6.24306 11.2386 6.24306 11.1859 6.31876C11.0402 6.53845 11.1077 7.01106 11.2133 7.22245C11.2882 7.41629 11.4044 7.53906 11.3495 7.53906C11.3041 7.64891 11.2112 7.62306 11.1436 7.4966C11.0465 7.23445 11.0275 6.84399 11.0275 6.66768C10.998 6.44983 10.9663 5.98368 10.8027 5.86553C10.7024 5.74645 10.5536 5.80368 10.5019 5.91353C10.4913 6.12953 10.4892 6.34645 10.5177 6.54676C10.6296 6.8966 10.6655 7.20491 10.7204 7.56399C10.7351 8.04491 10.4026 7.7726 10.4174 7.53445C10.4945 7.22522 10.4744 6.73783 10.4058 6.61414C10.352 6.49137 10.2876 6.45999 10.1567 6.48029C10.0532 6.47291 9.78514 6.72953 9.70914 7.15414C9.70914 7.15414 9.64475 7.37291 9.6173 7.56768C9.58036 7.78737 9.41569 7.94245 9.29958 7.53722C9.1993 7.24276 9.13808 6.51629 8.97025 6.68614C8.92169 7.25383 8.86363 8.2526 9.41463 8.35414Z" fill="white"/>
<path d="M10.4183 8.76831C9.86939 8.77754 9.06611 9.39877 9.04395 9.74308C9.62239 9.49939 10.1913 9.26493 10.7803 9.01385C10.6853 8.88923 10.7751 8.77754 10.4183 8.76831Z" fill="white"/>
<path d="M13.4449 10.6302C13.6993 9.889 13.4038 9.34254 13.542 9.3453C13.8344 9.6213 14.244 9.38223 14.3337 9.28623C14.3728 9.23823 14.4688 9.20684 14.5364 9.26961C14.7654 9.41361 15.1686 9.34531 15.252 9.09238C15.3048 8.83835 15.3372 8.58143 15.3491 8.32346C15.1623 8.37423 15.023 8.40838 15.0103 8.47577L14.9713 8.69546C14.9554 8.76654 14.7939 8.76931 14.7876 8.67884C14.7169 8.39731 14.4234 8.36038 14.2461 8.797C14.1268 8.88192 13.9115 8.89854 13.8882 8.77207C13.9167 8.47946 13.7816 8.43977 13.5114 8.57731C13.4249 7.99669 13.3373 7.44192 13.2507 6.8613C13.3636 6.85854 13.4671 6.93146 13.5695 6.81884C13.4565 6.51146 13.218 5.88377 13.086 5.83854C13.0216 5.77023 12.9668 5.81269 12.8834 5.83023C12.7419 5.86992 12.61 5.977 12.6511 6.18469C12.819 7.07546 12.9288 7.75392 13.0955 8.64469C13.1209 8.749 13.0216 8.88654 12.8929 8.87269C12.6744 8.74346 12.6195 8.48131 12.2458 8.49238C11.9745 8.49515 11.6653 8.75177 11.6273 9.00007C11.5819 9.19669 11.566 9.41084 11.6273 9.58346C11.8173 9.78284 12.0463 9.76346 12.2458 9.71823C12.4094 9.65915 12.5456 9.51515 12.6026 9.54931C12.6416 9.59084 12.6121 10.0644 11.8299 10.4281C11.356 10.6136 10.9791 10.6561 10.7765 10.3182C10.6509 10.1068 10.786 9.30377 10.4767 9.49023C9.56153 11.5533 12.6195 11.8395 12.9615 9.57515C12.9942 9.48192 13.123 9.38869 13.1451 9.541C13.0744 11.5921 10.7796 11.7333 10.3901 11.0881C10.293 10.9358 10.2645 10.5979 10.255 10.3948C10.197 9.99146 9.95525 10.1465 9.91725 10.5462C9.8782 10.7687 9.88875 10.8315 9.88875 11.0447C10.0101 12.6647 12.9657 11.9687 13.4449 10.6302ZM12.3049 9.229C12.2859 9.26038 12.2025 9.24746 12.1413 9.24746C12.0716 9.24469 12.0389 9.23454 11.9967 9.18561C11.9777 9.13023 12.0368 9.07761 12.0632 9.03607C12.0959 8.98715 12.2722 8.93638 12.3345 9.073C12.346 9.09893 12.3493 9.12709 12.3441 9.15454C12.3389 9.18199 12.3254 9.2077 12.3049 9.229Z" fill="white"/>
<path d="M14.3575 7.393C14.5412 7.33392 15.412 6.46346 15.412 6.46346C15.3666 6.42931 15.3265 6.40439 15.2811 6.37023C15.2326 6.33331 15.2379 6.29638 15.2811 6.26038C15.4965 6.15054 15.4279 5.90962 15.3149 5.79977C15.2419 5.76843 15.1615 5.75244 15.0801 5.75308C14.9987 5.75373 14.9186 5.77098 14.8463 5.80346C14.6953 5.92992 14.6594 6.133 14.7787 6.26038C14.8948 6.30838 15.0109 6.41085 14.9339 6.46715C14.5781 6.79946 13.6028 7.37269 13.7158 7.393C13.74 7.42069 14.3385 7.41977 14.3575 7.393ZM15.0025 6.02592C15.0584 6.01392 15.1302 6.05731 15.164 6.12192C15.1978 6.18654 15.1798 6.24838 15.1249 6.26038H15.1228C15.0679 6.27238 14.9961 6.229 14.9624 6.16439C14.9296 6.09885 14.9476 6.03792 15.0025 6.02592ZM9.3542 11.3152C9.21064 11.5708 9.15047 11.3955 9.13781 11.2524C9.12131 11.0121 9.13512 10.771 9.17898 10.5333C9.21486 10.3302 9.17898 10.3921 9.10509 10.4742C8.77892 10.9284 8.75042 11.6078 8.93092 11.8099C9.02592 11.9059 9.1832 11.9484 9.30036 11.917C9.50514 11.8395 9.59486 11.4758 9.54631 11.3438C9.47664 11.2505 9.42281 11.2358 9.3542 11.3152ZM20.1008 6.50777C20.4766 6.949 20.8334 7.39854 21.1828 7.85638C21.2514 8.25331 21.301 8.641 21.3305 9.02592C21.3886 9.76808 21.4055 10.5712 21.3527 11.353C21.511 11.3585 21.7675 11.1278 21.8562 10.7908C21.9143 10.3247 21.8351 9.49485 21.8298 9.21977C21.8228 9.04736 21.8133 8.87504 21.8013 8.70285C22.2172 9.29731 22.6225 9.91946 23.0184 10.6108C23.163 10.5518 23.1313 9.84469 23.0469 9.745C22.7302 9.15146 22.2943 8.56439 22.1549 8.33915C22.1032 8.25608 21.9269 8.01977 21.7169 7.74931C21.6988 7.53345 21.6692 7.31844 21.6282 7.105C21.5628 6.70992 21.815 7.14839 21.7802 6.91854C21.6989 6.52346 21.4477 6.25669 21.1543 5.89485C21.0593 5.77762 21.0624 5.75362 20.9157 5.92346C20.8638 6.02522 20.84 6.13618 20.846 6.24746C20.8002 6.18856 20.7513 6.13157 20.6993 6.07669C20.54 5.95649 20.3799 5.83711 20.219 5.71854C20.1124 5.65208 19.8528 5.53208 19.8063 5.73146C19.7847 5.87122 19.7926 6.01326 19.8295 6.15054C19.857 6.24931 20.0206 6.41362 20.1008 6.50777ZM20.8819 6.48562C20.902 6.56223 20.9231 6.63885 20.9368 6.71731L20.9526 6.79208C20.9084 6.73796 20.8622 6.68502 20.8144 6.63331C20.6413 6.45423 20.7848 6.493 20.8819 6.48562Z" fill="white"/>
<path d="M23.1367 10.7936C22.7693 11.1287 22.2394 11.5413 21.6631 11.7323C21.6008 11.7933 21.8172 12.0545 22.0959 12.0545C22.5635 12.0065 22.9752 11.7767 23.3562 11.172C23.4586 11.0317 23.6381 10.7299 23.6423 10.4954C23.6771 9.12373 23.5642 8.05573 23.3288 7.06435C23.313 6.9848 23.3173 6.9032 23.3414 6.82527C23.371 6.79388 23.4744 6.82527 23.5293 6.74773C23.6085 6.67573 23.3172 6.08496 23.1504 5.85788C23.0913 5.75635 23.0712 5.68804 22.973 5.86988C22.8696 6.01758 22.801 6.27512 22.8094 6.51512C23.0322 7.86558 23.1008 9.04804 23.2464 10.3985C23.2581 10.5287 23.2359 10.7188 23.1367 10.7936ZM29.2906 7.36896C29.2747 7.27296 29.2262 7.04958 29.2452 7.02096C29.2747 6.95265 29.4278 7.02835 29.4827 6.94988C29.5629 6.87881 29.0879 6.34527 28.9222 6.11819C28.862 6.01665 28.8419 5.94835 28.7438 6.13019C28.6403 6.27788 28.6044 6.54281 28.6456 6.77542C28.8937 8.24219 29.0784 9.34435 29.1164 10.645C29.0942 10.7687 29.09 10.8351 29.0235 10.9902C28.8768 11.1545 28.7153 11.3594 28.5622 11.4591C28.4102 11.5579 28.0862 11.653 27.9795 11.7259C27.6449 11.8967 27.6439 12.0914 27.9162 12.0979C28.3828 12.0499 28.9359 12.0167 29.3169 11.5127C29.4193 11.3723 29.5407 10.9911 29.546 10.7567C29.5808 9.38496 29.5259 8.36035 29.2906 7.36896ZM25.7534 8.51081C25.7576 8.3225 25.7777 8.07327 25.7893 7.91727C25.7945 7.85912 25.8104 7.79358 25.8737 7.77881C25.9381 7.76404 26.0521 7.83604 26.0532 7.77512C26.0405 7.65604 26.013 7.47881 25.936 7.39481C25.8304 7.25819 25.5507 7.29142 25.5011 7.50558C25.5022 7.58496 25.5433 7.62742 25.5359 7.69942C25.5233 7.74004 25.4747 7.76773 25.3597 7.71973C25.3787 7.70496 25.2847 7.59142 25.2847 7.59142C25.195 7.54342 25.0747 7.59419 24.9976 7.63758C24.9697 7.68412 24.9531 7.73518 24.9487 7.78758C24.9444 7.83998 24.9524 7.89261 24.9723 7.94219C25.0989 8.15173 25.5412 8.50712 25.7534 8.51081Z" fill="white"/>
<path d="M25.6048 6.90559C25.9141 7.23698 26.2297 7.57298 26.5475 7.91452C26.6161 8.67698 26.634 9.30098 26.7016 10.0634C26.6921 10.3865 26.5781 10.6681 26.4693 10.7087C26.4693 10.7087 26.3057 10.7917 26.196 10.7004C26.1157 10.6717 25.7959 10.2342 25.7959 10.2342C25.6323 10.1031 25.5246 10.1401 25.4085 10.2342C25.0876 10.5047 24.943 11.0124 24.7256 11.3613C24.6686 11.4397 24.5102 11.5062 24.334 11.3557C23.8875 10.8213 24.1492 10.0616 24.0943 10.2573C23.6964 10.6496 23.8716 11.2985 23.9613 11.4388C24.0922 11.6677 24.1988 11.8154 24.4543 11.929C24.6865 12.0785 24.8681 11.9844 24.9673 11.8801C25.2016 11.6668 25.2048 11.1268 25.3146 11.0179C25.3906 10.8213 25.5858 10.8545 25.6798 10.9422C25.7658 11.0484 25.8799 11.1348 26.0123 11.1942C26.2308 11.3631 26.4915 11.3936 26.748 11.2394C26.9232 11.1536 27.0383 11.0419 27.1407 10.8213C27.2547 10.5554 27.1924 9.33329 27.1692 8.60036C27.3328 8.78498 27.4922 8.9779 27.6537 9.17082C27.7244 9.78282 27.7645 10.3921 27.7413 11.0142C27.7244 11.1388 28.2374 10.645 28.2332 10.4105C28.2311 10.2213 28.2332 10.0496 28.2332 9.88805C28.4802 10.213 28.7208 10.5481 28.9467 10.9025C29.0882 10.8379 29.0417 10.141 28.952 10.045C28.6913 9.66282 28.344 9.26498 28.1044 8.98067C28.0886 8.94467 28.0801 8.90405 28.0611 8.8699C27.9651 8.67513 28.0252 8.51821 27.9798 8.31144C27.9355 8.10375 27.9471 7.79359 27.8785 7.54713C27.8595 7.45113 27.8025 7.14282 27.8194 7.11421C27.8468 7.04498 27.9524 7.11605 28.0041 7.03667C28.0812 6.96282 27.7371 6.18282 27.5618 5.95944C27.4985 5.85975 27.3845 5.8939 27.2431 6.05636C27.1132 6.16344 27.1618 6.40713 27.2114 6.63882C27.3349 7.20005 27.4383 7.73821 27.527 8.27082C27.3372 8.05014 27.1454 7.83075 26.9517 7.61267L26.9433 7.57205C26.9433 7.5619 26.9148 7.08836 26.8895 6.97575C26.8852 6.93052 26.8726 6.91667 26.9275 6.92221C26.9855 6.96467 26.9929 6.96744 27.0298 6.98221C27.089 6.99144 27.1407 6.90375 27.1058 6.82344L26.5601 5.94467C26.5168 5.90682 26.4598 5.86621 26.3912 5.95482C26.3486 5.98736 26.3145 6.02752 26.2912 6.07259C26.2679 6.11766 26.2559 6.16659 26.2561 6.21605C26.273 6.42375 26.3142 6.63605 26.33 6.84467L26.3532 6.95728C26.329 6.93236 26.2994 6.90098 26.2867 6.8899C25.8233 6.46344 26.5 6.82067 26.1981 6.49113C25.9426 6.24559 25.8687 6.16898 25.6492 6.02128C25.5394 5.95944 25.4729 5.84128 25.437 6.04252C25.4189 6.21897 25.4137 6.39625 25.4212 6.57329C25.4212 6.65821 25.5193 6.81328 25.6048 6.90559ZM16.2093 7.90159C16.4753 7.99759 16.6453 7.55452 16.7551 7.06898C16.829 6.93236 16.886 6.91759 16.924 6.98775C16.9145 7.6339 16.9767 7.77698 17.1667 7.97359C17.59 8.25975 17.9405 8.00959 17.969 7.98559L18.2983 7.69759C18.3711 7.63021 18.4693 7.62559 18.5727 7.68559C18.6741 7.76498 18.6603 7.90344 18.8757 7.99944C19.0572 8.06313 19.4457 8.01421 19.5354 7.87759C19.6568 7.69667 19.6863 7.6339 19.7412 7.56559C19.8278 7.46498 19.9756 7.51021 19.9756 7.54159C19.9618 7.5979 19.8753 7.65421 19.9344 7.75482C20.0378 7.82221 20.0611 7.77882 20.1223 7.76405C20.3376 7.67359 20.4981 7.26559 20.4981 7.26559C20.5076 7.11329 20.4105 7.12621 20.3471 7.15759C20.2648 7.20098 20.2595 7.21575 20.1772 7.26005C20.0716 7.2739 19.8679 7.33482 19.7676 7.19821C19.6642 7.0339 19.6621 6.80498 19.584 6.63975C19.584 6.62775 19.4467 6.37852 19.5745 6.36282C19.6388 6.37298 19.775 6.40436 19.7972 6.30467C19.8637 6.20682 19.6526 5.92805 19.509 5.78682C19.3834 5.66682 19.2092 5.65205 19.0414 5.77482C18.9232 5.8699 18.9401 5.97513 18.9168 6.07575C18.8977 6.14675 18.8977 6.22068 18.9169 6.29167C18.9362 6.36266 18.9741 6.42875 19.0277 6.48467C19.1448 6.68682 19.3591 6.94805 19.2884 7.31359C19.2884 7.31359 19.1638 7.48713 18.9453 7.46498C18.8546 7.44744 18.7068 7.41328 18.6287 6.90559C18.5696 6.52067 18.6435 5.98252 18.4566 5.73052C18.3891 5.57821 18.3405 5.43144 18.1758 5.69175C18.1315 5.79421 17.9415 5.94928 18.0798 6.26959C18.1927 6.47175 18.2381 6.80128 18.1875 7.16867C18.1093 7.27298 18.0925 7.30805 17.9901 7.41236C17.8465 7.54713 17.6913 7.51298 17.5721 7.46221C17.4602 7.39667 17.3736 7.36252 17.323 7.1539C17.3325 6.82159 17.3536 6.27698 17.2839 6.16159C17.1815 5.98252 17.0126 6.04713 16.9398 6.10159C16.5925 6.37944 16.4215 6.84744 16.317 7.21944C16.221 7.49082 16.1186 7.41328 16.0468 7.30344C15.8716 7.15944 15.86 6.03605 15.6478 6.22159C15.3068 7.06528 15.8399 7.99205 16.2093 7.90159Z" fill="white"/>
<path d="M21.2558 9.71438L21.1544 9.66361L19.1689 9.6553C19.0666 9.62115 19.0972 9.59161 19.1689 9.56761C19.6429 9.5113 20.4863 9.3913 20.5422 8.6833C20.5327 8.315 20.3607 8.07315 19.8434 8.00669C19.4645 8.03253 19.1932 8.35469 19.2365 8.70823C19.2186 8.80423 19.2724 8.99069 19.1616 9.01192C18.4322 9.07007 17.6373 9.46884 17.6109 9.755C17.5666 9.78177 17.4674 9.70423 17.4801 9.58238C17.4449 9.06118 17.2734 8.55399 16.9787 8.09992C16.7486 7.89869 16.8203 7.96515 16.6662 8.06023C16.567 8.15992 16.5491 8.22823 16.5543 8.42669C16.5543 8.43407 16.7401 8.8873 16.8974 9.20484C17.0019 9.53069 17.1001 9.90269 17.0293 10.2544C16.7844 10.7196 16.2915 11.1368 15.8165 11.363C15.5716 11.4322 15.3616 11.4073 15.3098 11.3593C15.1589 11.2707 15.1663 11.1073 15.1779 11.1045C15.5779 10.8599 16.0361 10.6633 16.3949 10.0052C16.5005 9.75407 16.5322 9.60177 16.4277 9.21315C16.3986 9.0762 16.3266 8.94901 16.2197 8.84577C16.2841 8.80884 16.4688 8.93161 16.4973 8.85869C16.4438 8.64597 16.3227 8.45079 16.1479 8.29561C16.0054 8.18207 15.8503 8.16915 15.7194 8.27346C15.5716 8.34546 15.5399 8.60207 15.6107 8.8273C15.6888 8.99715 15.9009 9.02577 16.0529 9.36638C16.0529 9.37377 16.1078 9.62115 16.0297 9.71807C15.9674 9.88792 15.1599 10.4427 15.1156 10.4676C15.0934 10.4916 15.1029 10.4556 15.0998 10.3633C15.0945 10.2507 15.1515 9.98484 15.1357 9.983C14.8728 10.1316 14.7852 10.5867 14.7377 10.7215C14.0727 11.123 13.3201 11.4221 12.8852 11.8301C12.6583 12.1393 14.4453 11.4747 14.6533 11.3944C14.6997 11.4239 14.6944 11.5633 14.819 11.6879C15.0048 11.9076 15.3974 12.0433 15.7827 11.9593C16.4266 11.7553 16.7992 11.3713 17.1771 10.9458C17.2309 10.8765 17.3154 10.8239 17.3935 10.8765C17.6532 11.3852 18.4037 11.7452 19.3716 11.783C19.5964 11.5439 19.4877 11.4285 19.3969 11.3787C19.3969 11.3713 18.9188 11.2125 18.8459 11.0538C18.8016 10.9098 18.9093 10.7833 19.1246 10.6873C19.7463 10.6218 20.3575 10.5488 20.9497 10.3827C20.956 10.2091 21.0711 9.94884 21.1502 9.83623C21.2262 9.72177 21.2674 9.75592 21.2558 9.71438ZM19.6228 8.63254C19.6524 8.58915 19.7506 8.591 19.8424 8.63807C19.9342 8.68423 19.9859 8.75807 19.9553 8.80146C19.9258 8.84577 19.8266 8.843 19.7347 8.79592C19.6429 8.74977 19.5933 8.67684 19.6228 8.63254ZM18.8238 10.3864C18.6106 10.4501 18.4058 10.4999 18.4058 10.7695C18.4849 11.1442 18.2971 11.0159 18.1862 10.9642C18.0553 10.8821 17.6869 10.6836 17.6342 10.2553C17.6257 10.1528 17.7176 10.067 17.8643 10.067C18.0849 10.1196 18.4111 10.1233 18.6939 10.1492C18.9251 10.1621 19.0402 10.3208 18.8238 10.3864ZM11.4697 6.22792C11.6977 6.32392 12.1284 6.2833 12.1094 5.96023C12.1094 5.93161 12.1009 5.83561 12.0978 5.80977C12.0513 5.71469 11.9247 5.73777 11.8951 5.83654C11.8856 5.86884 11.9109 5.92054 11.8782 5.93715C11.8592 5.95377 11.7864 5.94361 11.7896 5.855C11.7896 5.82638 11.7653 5.79592 11.7516 5.77838C11.7368 5.77007 11.7283 5.7673 11.7019 5.7673C11.6703 5.76823 11.6703 5.77561 11.6534 5.79961C11.646 5.82269 11.6354 5.84669 11.6354 5.87346C11.6312 5.90484 11.6175 5.91592 11.5911 5.92146C11.5616 5.92146 11.5679 5.92423 11.5447 5.91038C11.5299 5.89654 11.5119 5.891 11.5119 5.86792C11.5119 5.84094 11.5069 5.81415 11.4972 5.78854C11.4845 5.77377 11.4644 5.7673 11.4412 5.76177C11.3167 5.76177 11.3082 5.88638 11.3156 5.93438C11.304 5.94269 11.2998 6.16607 11.4697 6.22792Z" fill="white"/>
<path d="M18.4849 8.33256C18.4849 8.30395 18.4606 8.27441 18.4469 8.25595C18.4321 8.24764 18.4236 8.24487 18.3973 8.24487C18.3656 8.24579 18.3666 8.25318 18.3487 8.27718C18.3413 8.30118 18.3308 8.32426 18.3308 8.35102C18.3276 8.38333 18.3128 8.39441 18.2864 8.39902C18.2569 8.39902 18.2632 8.40179 18.2389 8.38887C18.2241 8.37502 18.2062 8.36949 18.2062 8.34641C18.2062 8.31942 18.2012 8.29262 18.1914 8.26702C18.1788 8.25226 18.1587 8.24579 18.1355 8.24118C18.0109 8.24118 18.0025 8.36579 18.0088 8.41287C17.9993 8.4221 17.994 8.64456 18.164 8.70733C18.393 8.80241 18.9366 8.74702 18.8036 8.43964C18.8014 8.38909 18.7976 8.33861 18.792 8.28826C18.7456 8.19318 18.6179 8.21718 18.5894 8.31502C18.5809 8.34733 18.6063 8.39902 18.5725 8.41564C18.5556 8.43226 18.4817 8.4221 18.4849 8.33256ZM22.0706 7.67995C22.2986 7.77595 22.7282 7.73533 22.7092 7.41318C22.707 7.36263 22.7031 7.31215 22.6976 7.26179C22.6511 7.16672 22.5245 7.19072 22.496 7.28856C22.4865 7.32087 22.5118 7.37256 22.478 7.38918C22.459 7.40579 22.3862 7.39656 22.3894 7.30702C22.3894 7.27841 22.3651 7.24795 22.3514 7.23041C22.3366 7.2221 22.3281 7.21933 22.3007 7.21933C22.269 7.22118 22.2701 7.22764 22.2521 7.25164C22.2448 7.27564 22.2342 7.29872 22.2342 7.32549C22.23 7.35779 22.2163 7.36887 22.1899 7.37349C22.1603 7.37349 22.1666 7.37626 22.1424 7.36333C22.1276 7.34949 22.1107 7.34395 22.1107 7.32087C22.1106 7.29359 22.1056 7.26649 22.0959 7.24056C22.0822 7.22579 22.0632 7.21933 22.0389 7.21472C21.9144 7.21472 21.9059 7.33933 21.9133 7.38641C21.9059 7.39564 21.9006 7.6181 22.0706 7.67995ZM22.2247 6.43195C22.306 6.63133 22.1624 6.82149 22.2479 6.84918C22.325 6.88056 22.4348 6.64333 22.4749 6.42456C22.5224 6.24733 22.3778 5.88456 22.173 5.80979C22.0484 5.78395 21.8711 5.84856 21.9281 5.99441C21.8996 6.06456 22.1793 6.30272 22.2247 6.43195ZM24.3305 11.1064C24.4899 11.1073 24.6736 10.7879 24.7517 10.4713C24.795 10.0356 24.7221 9.77072 24.7095 9.5141C24.6958 9.25841 24.3791 7.3061 24.3136 7.11226C24.2366 6.74579 24.6229 7.06333 24.5807 6.8501C24.4466 6.58149 24.1141 6.19102 24.0086 5.95749C23.9453 5.85779 23.9727 5.76918 23.8313 5.93164C23.7014 6.30549 23.656 6.6101 23.7056 6.84272C24.0413 8.37502 24.3854 9.64887 24.3305 11.1064ZM28.2952 7.10026C28.3321 7.19995 28.2393 7.5221 28.3163 7.55164C28.387 7.58487 28.4863 7.32918 28.5232 7.09195C28.5433 6.96179 28.4345 6.50764 28.2477 6.42641C28.1337 6.39872 27.9722 6.46795 28.025 6.62672C27.9986 6.70333 28.254 6.95995 28.2952 7.10026ZM14.4474 10.475C14.516 10.4999 14.6099 10.3116 14.6458 10.1372C14.6659 10.0412 14.5603 9.70795 14.3819 9.64795C14.2721 9.62764 14.1223 9.65349 14.1687 9.79564C14.1634 9.87226 14.4115 9.96456 14.4263 10.1427C14.4621 10.2166 14.3735 10.4538 14.4474 10.475ZM9.63826 6.21502C9.67309 6.29164 9.60343 6.53626 9.67626 6.55933C9.74276 6.58518 9.8367 6.38949 9.87154 6.20949C9.89159 6.10979 9.87576 5.77195 9.61187 5.70272C9.50315 5.68149 9.3522 5.7341 9.40181 5.85502C9.37648 5.91226 9.5992 6.10795 9.63826 6.21502ZM14.8126 7.29779C14.611 7.39379 14.5318 7.6781 14.6585 7.84333C14.7756 7.9901 14.9614 7.93564 14.9868 7.93564C15.1852 7.95687 15.3024 7.61072 15.3024 7.61072C15.3024 7.61072 15.3087 7.51379 15.0733 7.69749C14.9741 7.7141 14.9614 7.68179 14.9371 7.63195C14.9131 7.54161 14.9239 7.44685 14.9678 7.36241C15.0015 7.27656 14.9255 7.23872 14.8126 7.29779ZM16.3347 6.23349C16.3672 6.21591 16.3952 6.19251 16.4166 6.16483C16.4381 6.13715 16.4526 6.10581 16.4593 6.07287C16.4899 5.9381 16.2956 6.13656 16.2714 5.9861C16.2281 5.84672 16.3526 5.78949 16.4709 5.65472C16.4751 5.56149 16.473 5.49595 16.3284 5.57164C16.227 5.63164 16.0244 5.81441 16.018 6.02487C16.0117 6.14395 15.9864 6.14302 16.0761 6.21872C16.1405 6.30087 16.2049 6.29256 16.3347 6.23349ZM17.7059 6.30549C17.8368 5.99533 17.8368 5.86426 17.8463 5.73226C17.8061 5.53195 17.651 5.53841 17.5486 5.76087C17.5043 5.84487 17.4525 6.28702 17.461 6.28702C17.4261 6.41902 17.6183 6.47533 17.7059 6.30549ZM26.3298 8.50518C26.3298 8.50518 25.271 9.16333 25.2457 9.18641C25.1401 9.26764 25.1929 9.55564 25.2457 9.52241C25.3206 9.54826 26.3857 8.91595 26.3646 8.8421C26.4142 8.84395 26.4385 8.47195 26.3298 8.50518ZM26.1999 10.2904C26.2706 10.3236 26.4575 10.1215 26.4501 9.86949C26.4712 9.73933 26.3963 9.2621 26.2105 9.18087C26.0965 9.15318 25.9445 9.2381 25.9973 9.39595C25.9709 9.47164 26.1281 9.73656 26.1693 9.87687C26.2063 9.97749 26.1229 10.2609 26.1999 10.2904ZM20.2044 11.6713C20.2044 11.6796 20.2941 11.747 20.3996 11.6935C20.6213 11.6187 20.7606 11.5467 21.071 11.4867C21.1523 11.4858 21.147 11.2947 21.0182 11.2883C20.8504 11.2956 20.6941 11.303 20.5263 11.4193C20.4229 11.4396 20.406 11.3852 20.3828 11.3353C20.3574 11.2126 20.4408 11.1276 20.4229 11.0363C20.4292 11.0418 20.3268 10.9596 20.2223 11.0058C20.217 11.0058 19.989 11.1406 19.9162 11.2347C19.8708 11.2652 19.8761 11.291 19.8898 11.3418C19.9246 11.4119 19.9869 11.3907 20.0566 11.3575C20.1495 11.3464 20.1938 11.3999 20.1864 11.4969C20.1421 11.6196 20.2044 11.6649 20.2044 11.6713ZM27.1193 11.8246C27.0845 11.8772 27.0613 11.9566 27.1689 11.9815C27.3674 12.0304 27.8244 11.7701 27.8244 11.7655C27.8983 11.7166 27.874 11.6252 27.8677 11.6252C27.8244 11.5818 27.7273 11.6067 27.6619 11.6003C27.6313 11.6003 27.5278 11.5864 27.5774 11.507C27.6123 11.4642 27.64 11.4173 27.6598 11.3676C27.6904 11.3076 27.664 11.2679 27.5521 11.2356C27.4391 11.2172 27.3938 11.2264 27.2681 11.2356C27.2006 11.2486 27.1774 11.2744 27.1647 11.3464C27.17 11.4553 27.2449 11.4498 27.323 11.4932C27.3684 11.5439 27.398 11.5901 27.3199 11.6723C27.246 11.7323 27.1943 11.7655 27.1193 11.8246ZM26.9166 16.6153H25.3333V16.1538C25.3333 16.0314 25.2777 15.914 25.1787 15.8274C25.0798 15.7409 24.9455 15.6923 24.8055 15.6923C24.6656 15.6923 24.5313 15.7409 24.4323 15.8274C24.3334 15.914 24.2778 16.0314 24.2778 16.1538V16.6153H11.6111C11.6111 16.6153 11.6111 17.5384 14.7778 17.5384H24.2778V17.9999C24.2778 18.1224 24.3334 18.2397 24.4323 18.3263C24.5313 18.4129 24.6656 18.4615 24.8055 18.4615C24.9455 18.4615 25.0798 18.4129 25.1787 18.3263C25.2777 18.2397 25.3333 18.1224 25.3333 17.9999V17.5384H26.3889V17.9999C26.3889 18.1224 26.4445 18.2397 26.5435 18.3263C26.6424 18.4129 26.7767 18.4615 26.9166 18.4615C27.0566 18.4615 27.1909 18.4129 27.2898 18.3263C27.3888 18.2397 27.4444 18.1224 27.4444 17.9999V17.0769C27.4444 16.9545 27.3888 16.8371 27.2898 16.7505C27.1909 16.664 27.0566 16.6153 26.9166 16.6153Z" fill="white"/>
</svg>
