<svg width="18" height="18" viewBox="0 0 18 18" fill="none" xmlns="http://www.w3.org/2000/svg">
<rect width="18" height="18" rx="9" fill="white"/>
<path d="M9 11C9.82845 11 10.5 10.3285 10.5 9.5C10.5 8.67155 9.82845 8 9 8C8.17155 8 7.5 8.67155 7.5 9.5C7.5 10.3285 8.17155 11 9 11Z" stroke="black" stroke-linecap="round" stroke-linejoin="round"/>
<path d="M4.5 11.4V7.6C4.5 7.03995 4.5 6.75992 4.60899 6.54601C4.70486 6.35784 4.85785 6.20486 5.04601 6.10899C5.25992 6 5.53995 6 6.1 6H6.62732C6.68879 6 6.71952 6 6.74788 5.99675C6.89583 5.9798 7.02853 5.89779 7.10985 5.77304C7.12543 5.74913 7.13918 5.72164 7.16667 5.66666C7.22165 5.55671 7.24914 5.50173 7.28031 5.45391C7.44295 5.20441 7.70834 5.04039 8.00425 5.00649C8.06095 5 8.1224 5 8.24535 5H9.75465C9.8776 5 9.93905 5 9.99575 5.00649C10.2916 5.04039 10.557 5.20441 10.7197 5.45391C10.7508 5.50172 10.7784 5.55672 10.8334 5.66666C10.8608 5.72164 10.8746 5.74913 10.8902 5.77304C10.9715 5.89779 11.1041 5.9798 11.2521 5.99675C11.2805 6 11.3112 6 11.3727 6H11.9C12.46 6 12.7401 6 12.954 6.10899C13.1422 6.20486 13.2951 6.35784 13.391 6.54601C13.5 6.75992 13.5 7.03995 13.5 7.6V11.4C13.5 11.96 13.5 12.2401 13.391 12.454C13.2951 12.6421 13.1422 12.7951 12.954 12.891C12.7401 13 12.46 13 11.9 13H6.1C5.53995 13 5.25992 13 5.04601 12.891C4.85785 12.7951 4.70486 12.6421 4.60899 12.454C4.5 12.2401 4.5 11.96 4.5 11.4Z" stroke="black" stroke-linecap="round" stroke-linejoin="round"/>
</svg>
