<svg width="14" height="14" viewBox="0 0 14 14" fill="none" xmlns="http://www.w3.org/2000/svg">
<g clip-path="url(#clip0_322_3884)">
<path d="M0.775016 14C0.664522 14 0.55856 13.9562 0.480429 13.878C0.402298 13.7999 0.358398 13.6939 0.358398 13.5834V0.00170898H9.40191V7.41749H1.19163V13.5834C1.19163 13.6939 1.14773 13.7999 1.0696 13.878C0.991471 13.9562 0.885509 14 0.775016 14ZM1.19163 6.58426H8.56867V0.834943H1.19163V6.58426Z" fill="white"/>
<path d="M9.40477 2.81685L12.549 2.83809C12.6181 2.83875 12.6842 2.86662 12.733 2.91567C12.7817 2.96472 12.8091 3.031 12.8094 3.10015V7.50629C12.8094 7.57579 12.7818 7.64245 12.7326 7.69159C12.6835 7.74073 12.6168 7.76834 12.5473 7.76834H9.56892C9.52559 7.76769 9.48421 7.75019 9.45356 7.71955C9.42292 7.6889 9.40541 7.64753 9.40477 7.60419V2.81685ZM8.57153 1.97778V7.60211C8.57153 7.86664 8.67662 8.12032 8.86367 8.30737C9.05071 8.49441 9.3044 8.59949 9.56892 8.59949H12.5473C12.8378 8.59949 13.1164 8.4841 13.3218 8.27869C13.5272 8.07328 13.6426 7.7947 13.6426 7.50421V3.10015C13.6426 2.81096 13.5282 2.53349 13.3245 2.3283C13.1207 2.12311 12.844 2.00684 12.5548 2.00486L8.57153 1.97778Z" fill="white"/>
</g>
<defs>
<clipPath id="clip0_322_3884">
<rect width="14" height="14" fill="white"/>
</clipPath>
</defs>
</svg>
