<svg width="20" height="20" viewBox="0 0 20 20" fill="none" xmlns="http://www.w3.org/2000/svg">
<g clip-path="url(#clip0_80_47)">
<path d="M20 0H0V20H20V0Z" fill="white"/>
<path fill-rule="evenodd" clip-rule="evenodd" d="M1.66663 9.16663H18.3333V12.5548C18.3334 13.2935 18.3334 13.93 18.2649 14.4398C18.1914 14.986 18.0258 15.5097 17.601 15.9344C17.1764 16.3591 16.6527 16.5247 16.1065 16.5982C15.5967 16.6667 14.9602 16.6667 14.2215 16.6666H5.77841C5.03969 16.6667 4.40319 16.6667 3.89347 16.5982C3.34721 16.5247 2.82359 16.3591 2.39887 15.9344C1.97414 15.5097 1.80853 14.986 1.73509 14.4398C1.66655 13.93 1.66659 13.2935 1.66663 12.5548V9.16663ZM4.16663 11.6666C4.16663 11.2064 4.53973 10.8333 4.99996 10.8333H6.66663C7.12686 10.8333 7.49996 11.2064 7.49996 11.6666C7.49996 12.1269 7.12686 12.5 6.66663 12.5H4.99996C4.53973 12.5 4.16663 12.1269 4.16663 11.6666ZM8.3333 11.6666C8.3333 11.2064 8.70638 10.8333 9.16663 10.8333H10.8333C11.2935 10.8333 11.6666 11.2064 11.6666 11.6666C11.6666 12.1269 11.2935 12.5 10.8333 12.5H9.16663C8.70638 12.5 8.3333 12.1269 8.3333 11.6666Z" fill="black"/>
<path d="M18.3333 7.50005V7.44519C18.3334 6.70645 18.3334 6.06993 18.2649 5.56022C18.1914 5.01396 18.0258 4.49033 17.601 4.06562C17.1764 3.64089 16.6527 3.47528 16.1065 3.40183C15.5967 3.3333 14.9602 3.33333 14.2215 3.33338H5.77845C5.0397 3.33333 4.4032 3.3333 3.89348 3.40183C3.34721 3.47528 2.82359 3.64089 2.39887 4.06561C1.97414 4.49033 1.80853 5.01396 1.73509 5.56022C1.66655 6.06994 1.66659 6.70646 1.66663 7.44521V7.50004L18.3333 7.50005Z" fill="black"/>
</g>
<defs>
<clipPath id="clip0_80_47">
<rect width="20" height="20" fill="white"/>
</clipPath>
</defs>
</svg>
