<svg width="20" height="20" viewBox="0 0 20 20" fill="none" xmlns="http://www.w3.org/2000/svg">
<g clip-path="url(#clip0_80_88)">
<path d="M20 0H0V20H20V0Z" fill="white"/>
<path d="M12.5199 18.3334C13.5642 18.3334 14.4603 18.2785 15.2089 18.1121C15.9672 17.9436 16.6244 17.6499 17.1371 17.1372C17.6498 16.6245 17.9435 15.9673 18.112 15.209C18.2784 14.4604 18.3333 13.5643 18.3333 12.52V10C18.3333 9.07954 17.5871 8.33337 16.6666 8.33337H9.99992C9.07942 8.33337 8.33325 9.07954 8.33325 10V16.6667C8.33325 17.5872 9.07942 18.3334 9.99992 18.3334H12.5199Z" fill="black"/>
<path d="M1.66675 12.52C1.66675 13.5643 1.72161 14.4604 1.88801 15.209C2.05651 15.9673 2.35026 16.6245 2.86294 17.1372C3.37562 17.6499 4.03286 17.9436 4.79104 18.1121C4.86365 18.1282 4.93662 18.1434 5.0099 18.1575C5.91366 18.3321 6.66675 17.5672 6.66675 16.6467V10C6.66675 9.07954 5.92056 8.33337 5.00008 8.33337H3.33341C2.41294 8.33337 1.66675 9.07954 1.66675 10V12.52Z" fill="black"/>
<path d="M7.48008 1.66663C6.4358 1.66663 5.53976 1.72149 4.79103 1.88789C4.03285 2.05639 3.37562 2.35013 2.86293 2.86282C2.35025 3.3755 2.05651 4.03273 1.88801 4.79092C1.87418 4.85318 1.86116 4.91563 1.84893 4.97828C1.67028 5.89385 2.44918 6.66663 3.38202 6.66663H16.6468C17.5673 6.66663 18.3322 5.91353 18.1576 5.00978C18.1434 4.9365 18.1283 4.86353 18.1122 4.79092C17.9436 4.03273 17.6499 3.3755 17.1372 2.86282C16.6245 2.35013 15.9673 2.05639 15.2091 1.88789C14.4603 1.72149 13.5644 1.66663 12.5201 1.66663H7.48008Z" fill="black"/>
</g>
<defs>
<clipPath id="clip0_80_88">
<rect width="20" height="20" fill="white"/>
</clipPath>
</defs>
</svg>
