<svg width="16" height="16" viewBox="0 0 16 16" fill="none" xmlns="http://www.w3.org/2000/svg">
<path d="M5.5 2.99999V1.49899C5.5 1.36638 5.55268 1.23921 5.64645 1.14544C5.74021 1.05167 5.86739 0.998993 6 0.998993H10C10.1326 0.998993 10.2598 1.05167 10.3536 1.14544C10.4473 1.23921 10.5 1.36638 10.5 1.49899V2.99999H14.5C14.6326 2.99999 14.7598 3.05267 14.8536 3.14644C14.9473 3.24021 15 3.36739 15 3.49999C15 3.6326 14.9473 3.75978 14.8536 3.85355C14.7598 3.94731 14.6326 3.99999 14.5 3.99999H1.5C1.36739 3.99999 1.24021 3.94731 1.14645 3.85355C1.05268 3.75978 1 3.6326 1 3.49999C1 3.36739 1.05268 3.24021 1.14645 3.14644C1.24021 3.05267 1.36739 2.99999 1.5 2.99999H5.5ZM6.5 2.99999H9.5V1.99999H6.5V2.99999ZM3 15C2.86739 15 2.74021 14.9473 2.64645 14.8535C2.55268 14.7598 2.5 14.6326 2.5 14.5V3.99999H13.5V14.5C13.5 14.6326 13.4473 14.7598 13.3536 14.8535C13.2598 14.9473 13.1326 15 13 15H3ZM6.5 12C6.63261 12 6.75979 11.9473 6.85355 11.8535C6.94732 11.7598 7 11.6326 7 11.5V6.49999C7 6.36739 6.94732 6.24021 6.85355 6.14644C6.75979 6.05267 6.63261 5.99999 6.5 5.99999C6.36739 5.99999 6.24021 6.05267 6.14645 6.14644C6.05268 6.24021 6 6.36739 6 6.49999V11.5C6 11.6326 6.05268 11.7598 6.14645 11.8535C6.24021 11.9473 6.36739 12 6.5 12ZM9.5 12C9.63261 12 9.75979 11.9473 9.85355 11.8535C9.94732 11.7598 10 11.6326 10 11.5V6.49999C10 6.36739 9.94732 6.24021 9.85355 6.14644C9.75979 6.05267 9.63261 5.99999 9.5 5.99999C9.36739 5.99999 9.24021 6.05267 9.14645 6.14644C9.05268 6.24021 9 6.36739 9 6.49999V11.5C9 11.6326 9.05268 11.7598 9.14645 11.8535C9.24021 11.9473 9.36739 12 9.5 12Z" fill="black"/>
</svg>
