<svg width="20" height="20" viewBox="0 0 20 20" fill="none" xmlns="http://www.w3.org/2000/svg">
<path fill-rule="evenodd" clip-rule="evenodd" d="M10.607 0.658813C5.43051 0.658813 1.23169 4.85764 1.23169 10.0341C1.23169 15.2106 5.42934 19.4094 10.607 19.4094C15.7858 19.4094 19.9823 15.2106 19.9823 10.0341C19.9823 4.85764 15.7858 0.658813 10.607 0.658813ZM3.58698 10.0329C3.58698 6.16352 6.73639 3.01411 10.607 3.01411C12.1999 3.01411 13.6658 3.55293 14.8446 4.45058L5.02463 14.2718C4.12698 13.0929 3.58698 11.6247 3.58698 10.0329ZM10.607 17.0518C9.09522 17.0518 7.69875 16.5682 6.55169 15.7518L16.327 5.97646C17.1423 7.12352 17.6258 8.52117 17.6258 10.0329C17.6246 13.9023 14.4776 17.0518 10.607 17.0518Z" fill="black"/>
</svg>
