<svg width="38" height="24" viewBox="0 0 38 24" fill="none" xmlns="http://www.w3.org/2000/svg">
<path d="M35.1541 0H2.84592C1.27411 0 0 1.22823 0 2.74343V21.2566C0 22.7717 1.27411 24 2.84592 24H35.1541C36.7258 24 38 22.7718 38 21.2566V2.74343C38 1.22823 36.7259 0 35.1541 0Z" fill="#41479B"/>
<path d="M37.9606 2.28997C37.7363 0.990767 36.5655 0 35.1541 0H34.4136L22.2759 7.66593V7.15066e-05H15.7241V7.666L3.5864 7.15066e-05H2.84592C1.4345 7.15066e-05 0.263699 0.990767 0.0394102 2.29004L10.4136 8.84221H0V15.158H10.4136L0.0394102 21.71C0.263699 23.0092 1.4345 24 2.84592 24H3.5864L15.7241 16.3341V24H22.2759V16.3341L34.4136 24H35.1541C36.5655 24 37.7363 23.0093 37.9606 21.71L27.5864 15.1579H38V8.84207H27.5864L37.9606 2.28997Z" fill="#F5F5F5"/>
<path d="M20.9655 0H17.0345V10.1052H0V13.8947H17.0345V23.9999H20.9655V13.8947H38V10.1052H20.9655V0Z" fill="#FF4B55"/>
<path d="M1.84008 23.8232L15.688 15.158H13.2813L0.68457 23.0403C0.992801 23.3871 1.38891 23.6588 1.84008 23.8232Z" fill="#FF4B55"/>
<path d="M25.7085 15.158H23.3018L36.7143 23.5507C37.0896 23.313 37.4028 22.9921 37.6262 22.6152L25.7085 15.158Z" fill="#FF4B55"/>
<path d="M0.300537 1.51664L12.0071 8.84201H14.4138L1.14856 0.54126C0.792385 0.796822 0.500928 1.13094 0.300537 1.51664Z" fill="#FF4B55"/>
<path d="M24.6826 8.84208L37.3024 0.945201C36.9908 0.599563 36.5916 0.329406 36.1373 0.168213L22.2759 8.84208H24.6826Z" fill="#FF4B55"/>
</svg>
