<svg width="20" height="20" viewBox="0 0 20 20" fill="none" xmlns="http://www.w3.org/2000/svg">
<path d="M3.0719 4.64586C3.96565 4.64586 4.68972 3.92121 4.68972 3.02812C4.68972 2.1341 3.96565 1.41003 3.0719 1.41003C2.17788 1.41003 1.45386 2.1341 1.45386 3.02812C1.45382 3.92121 2.17788 4.64586 3.0719 4.64586Z" fill="black"/>
<path d="M9.98855 8.93476V8.93719C9.9925 8.93719 9.99613 8.93598 10 8.93598C10.004 8.93598 10.0076 8.93719 10.0115 8.93719V8.93476C10.6194 8.92238 11.1085 8.42789 11.1085 7.81754C11.1085 7.20629 10.6194 6.71211 10.0115 6.69973V6.69727C10.0076 6.69727 10.0039 6.69848 10 6.69848C9.99613 6.69848 9.9925 6.69727 9.98855 6.69727V6.69973C9.38063 6.71211 8.8916 7.20629 8.8916 7.81754C8.89156 8.42789 9.38063 8.92238 9.98855 8.93476Z" fill="black"/>
<path d="M16.9281 4.64586C17.8221 4.64586 18.5462 3.92121 18.5462 3.02812C18.5462 2.1341 17.8221 1.41003 16.9281 1.41003C16.0344 1.41003 15.3103 2.1341 15.3103 3.02812C15.3103 3.92121 16.0344 4.64586 16.9281 4.64586Z" fill="black"/>
<path d="M18.3632 5.41223H16.9447H16.2258C15.4014 5.41223 14.6464 5.87438 14.2714 6.6084L12.963 10.4352C12.918 10.523 12.8342 10.5852 12.7368 10.6025C12.6394 10.6198 12.5396 10.5904 12.4667 10.523L11.6528 9.81829C11.4093 9.59294 11.09 9.46778 10.7582 9.46778H10H9.2418C8.91 9.46778 8.59067 9.59294 8.34719 9.81829L7.53332 10.523C7.46043 10.5904 7.36063 10.6198 7.26324 10.6025C7.1659 10.5852 7.08211 10.523 7.03703 10.4352L5.72863 6.6084C5.35363 5.87438 4.59871 5.41223 3.77426 5.41223H3.05527H1.6368C0.852891 5.41223 0 6.26512 0 7.04938V12.4873C0 12.8793 0.317578 13.1971 0.709531 13.1971C0.902461 13.1971 0.709531 13.1971 1.20492 13.1971L1.47469 17.8348C1.47469 18.2518 1.81313 18.59 2.23016 18.59C2.40617 18.59 2.7307 18.59 3.05523 18.59C3.37977 18.59 3.7043 18.59 3.88031 18.59C4.29734 18.59 4.63578 18.2518 4.63578 17.8348L4.90555 13.1971L4.90223 9.88594C4.90223 9.83364 4.93793 9.78856 4.98902 9.77587C5.04016 9.76376 5.09246 9.78794 5.11637 9.83454L6.15434 12.3893C6.27957 12.6336 6.51184 12.8054 6.78223 12.8535C7.05262 12.9016 7.32996 12.8206 7.53168 12.6343L8.52488 11.9027C8.55817 11.8721 8.60625 11.8642 8.64738 11.8815C8.68883 11.9 8.71547 11.9408 8.71547 11.9855L8.7191 14.8569L8.9057 18.0674C8.9057 18.3559 9.14012 18.59 9.42895 18.59C9.55055 18.59 9.77524 18.59 9.99996 18.59C10.2247 18.59 10.4494 18.59 10.571 18.59C10.8598 18.59 11.0942 18.3559 11.0942 18.0674L11.2808 14.8569L11.2845 11.9855C11.2845 11.9407 11.3111 11.9 11.3525 11.8815C11.3936 11.8642 11.4417 11.8721 11.475 11.9027L12.4682 12.6343C12.67 12.8206 12.9473 12.9016 13.2177 12.8535C13.4881 12.8054 13.7204 12.6336 13.8456 12.3893L14.8836 9.83454C14.9074 9.78798 14.9598 9.76376 15.0109 9.77587C15.062 9.78856 15.0977 9.8336 15.0977 9.88594L15.0943 13.1971L15.3641 17.8348C15.3641 18.2518 15.7025 18.59 16.1196 18.59C16.2957 18.59 16.6202 18.59 16.9447 18.59C17.2692 18.59 17.5938 18.59 17.7697 18.59C18.1868 18.59 18.5253 18.2518 18.5253 17.8348L18.795 13.1971C19.2904 13.1971 19.0975 13.1971 19.2904 13.1971C19.6824 13.1971 20 12.8793 20 12.4873V7.04938C20 6.26512 19.1471 5.41223 18.3632 5.41223Z" fill="black"/>
</svg>
