<svg width="20" height="20" viewBox="0 0 20 20" fill="none" xmlns="http://www.w3.org/2000/svg">
<path d="M13.8998 5.80044H17.0795C17.1351 5.80199 17.1904 5.79219 17.2421 5.77163C17.2937 5.75108 17.3407 5.7202 17.38 5.68089C17.4193 5.64158 17.4502 5.59466 17.4707 5.543C17.4913 5.49135 17.5011 5.43604 17.4995 5.38047C17.5031 5.32469 17.4942 5.2688 17.4735 5.2169C17.4527 5.16499 17.4206 5.11839 17.3795 5.08049L13.4198 1.12078C13.3819 1.07968 13.3353 1.04758 13.2834 1.02682C13.2315 1.00606 13.1756 0.997164 13.1198 1.00079C13.0643 0.999237 13.009 1.00904 12.9573 1.0296C12.9056 1.05015 12.8587 1.08103 12.8194 1.12034C12.7801 1.15965 12.7492 1.20657 12.7287 1.25823C12.7081 1.30988 12.6983 1.36519 12.6999 1.42076V4.60053C12.7009 4.91846 12.8276 5.22309 13.0524 5.4479C13.2772 5.67271 13.5818 5.79945 13.8998 5.80044Z" fill="black"/>
<path d="M16.8994 7.60092H12.6997C12.2227 7.59993 11.7655 7.40999 11.4281 7.07266C11.0908 6.73533 10.9009 6.2781 10.8999 5.80105V1.60136C10.8999 1.44224 10.8367 1.28964 10.7242 1.17713C10.6116 1.06461 10.459 1.0014 10.2999 1.0014H4.30036C3.82331 1.00239 3.36608 1.19234 3.02875 1.52967C2.69143 1.86699 2.50148 2.32422 2.50049 2.80127V17.2002C2.50148 17.6773 2.69143 18.1345 3.02875 18.4718C3.36608 18.8092 3.82331 18.9991 4.30036 19.0001H15.6995C16.1766 18.9991 16.6338 18.8092 16.9711 18.4718C17.3085 18.1345 17.4984 17.6773 17.4994 17.2002V8.20088C17.4994 8.12209 17.4839 8.04408 17.4537 7.97129C17.4236 7.8985 17.3794 7.83236 17.3237 7.77665C17.268 7.72093 17.2018 7.67674 17.129 7.64659C17.0562 7.61644 16.9782 7.60092 16.8994 7.60092ZM4.90031 7.00097C4.90702 6.84574 4.97295 6.69898 5.08454 6.59088C5.19613 6.48277 5.34491 6.42153 5.50027 6.41976H7.95634C8.03316 6.41927 8.10932 6.43391 8.18048 6.46285C8.25164 6.49179 8.3164 6.53446 8.37107 6.58843C8.42574 6.64241 8.46924 6.70661 8.49909 6.7774C8.52894 6.84818 8.54456 6.92415 8.54505 7.00097V7.59717C8.5403 7.75344 8.47585 7.90195 8.36495 8.01215C8.25405 8.12235 8.10514 8.18587 7.94884 8.18963H5.50027C5.42205 8.19116 5.34432 8.17688 5.27175 8.14765C5.19918 8.11842 5.13326 8.07483 5.07793 8.01951C5.02261 7.96419 4.97903 7.89827 4.9498 7.82569C4.92056 7.75312 4.90628 7.6754 4.90781 7.59717L4.90031 7.00097ZM13.8997 14.7892C13.8997 14.9483 13.8365 15.1009 13.7239 15.2134C13.6114 15.3259 13.4588 15.3891 13.2997 15.3891H5.50027C5.34115 15.3891 5.18855 15.3259 5.07604 15.2134C4.96352 15.1009 4.90031 14.9483 4.90031 14.7892V14.2004C4.90031 14.0413 4.96352 13.8887 5.07604 13.7762C5.18855 13.6637 5.34115 13.6005 5.50027 13.6005H13.2997C13.4588 13.6005 13.6114 13.6637 13.7239 13.7762C13.8365 13.8887 13.8997 14.0413 13.8997 14.2004V14.7892ZM15.0996 11.1894C15.1011 11.2691 15.0867 11.3484 15.0572 11.4225C15.0277 11.4966 14.9837 11.564 14.9279 11.6209C14.872 11.6778 14.8054 11.723 14.7318 11.7539C14.6583 11.7847 14.5794 11.8006 14.4996 11.8006H5.50027C5.34115 11.8006 5.18855 11.7374 5.07604 11.6249C4.96352 11.5124 4.90031 11.3598 4.90031 11.2007V10.6007C4.90031 10.4416 4.96352 10.289 5.07604 10.1765C5.18855 10.064 5.34115 10.0007 5.50027 10.0007H14.4996C14.6587 10.0007 14.8113 10.064 14.9239 10.1765C15.0364 10.289 15.0996 10.4416 15.0996 10.6007V11.1894Z" fill="black"/>
</svg>
