<svg width="16" height="16" viewBox="0 0 16 16" fill="none" xmlns="http://www.w3.org/2000/svg">
<path fill-rule="evenodd" clip-rule="evenodd" d="M7.98559 0.5271C3.84441 0.5271 0.485352 3.88616 0.485352 8.02733C0.485352 12.1685 3.84347 15.5276 7.98559 15.5276C12.1286 15.5276 15.4858 12.1685 15.4858 8.02733C15.4858 3.88616 12.1286 0.5271 7.98559 0.5271ZM2.36959 8.02639C2.36959 4.93086 4.88912 2.41133 7.98559 2.41133C9.25994 2.41133 10.4326 2.84239 11.3757 3.56051L3.5197 11.4175C2.80159 10.4744 2.36959 9.2998 2.36959 8.02639ZM7.98559 13.6415C6.77618 13.6415 5.659 13.2546 4.74135 12.6015L12.5616 4.78122C13.2138 5.69886 13.6006 6.81698 13.6006 8.02639C13.5997 11.1219 11.0821 13.6415 7.98559 13.6415Z" fill="black"/>
</svg>
