<svg width="14" height="14" viewBox="0 0 14 14" fill="none" xmlns="http://www.w3.org/2000/svg">
<path d="M12.9759 12.2764L10.8952 6.28716C10.7491 5.89313 10.4221 5.64955 10.0463 5.64955C9.67052 5.64955 9.35042 5.89313 9.19037 6.30149L7.11668 12.2764C7.01926 12.5558 7.15843 12.8639 7.42982 12.9642C7.70121 13.0645 8.00043 12.9212 8.09786 12.6418L8.52929 11.4024H11.5563L11.9878 12.6418C12.0643 12.8639 12.2661 13 12.4818 13C12.5375 13 12.6001 12.9928 12.6558 12.9713C12.9272 12.871 13.0664 12.563 12.9689 12.2836L12.9759 12.2764ZM8.91202 10.3206L10.0532 7.03224L11.1945 10.3206H8.91202ZM7.13756 4.02328C5.56489 6.5809 4.14532 8.12836 2.41957 9.16C2.33607 9.21015 2.2456 9.23164 2.1621 9.23164C1.98117 9.23164 1.80721 9.13851 1.70979 8.96657C1.56365 8.70866 1.64716 8.3791 1.89767 8.23582C3.35899 7.36179 4.55589 6.10806 5.89891 4.03045H1.5219C1.2366 4.03045 1 3.78687 1 3.49313C1 3.1994 1.2366 2.95582 1.5219 2.95582H4.13141V1.53731C4.13141 1.24358 4.368 1 4.65331 1C4.93861 1 5.17521 1.24358 5.17521 1.53731V2.95582H7.78472C8.07002 2.95582 8.30662 3.1994 8.30662 3.49313C8.30662 3.78687 8.07002 4.03045 7.78472 4.03045H7.1306L7.13756 4.02328ZM7.16539 9.23164C7.07493 9.23164 6.98447 9.21015 6.90096 9.16C6.44865 8.88776 6.01025 8.58687 5.59968 8.27164C5.37005 8.09254 5.32134 7.75582 5.49531 7.5194C5.66928 7.28298 5.99633 7.23284 6.22597 7.41194C6.60174 7.70567 7.0123 7.97791 7.42982 8.22866C7.68034 8.3791 7.76384 8.70866 7.61771 8.96657C7.52029 9.13851 7.34632 9.23164 7.16539 9.23164Z" fill="white"/>
</svg>
