<svg width="30" height="30" viewBox="0 0 30 30" fill="none" xmlns="http://www.w3.org/2000/svg">
<path d="M25.7249 24.2125L21.9874 13.7625C21.7249 13.075 21.1374 12.65 20.4624 12.65C19.7874 12.65 19.2124 13.075 18.9249 13.7875L15.1999 24.2125C15.0249 24.7 15.2749 25.2375 15.7624 25.4125C16.2499 25.5875 16.7874 25.3375 16.9624 24.85L17.7374 22.6875H23.1749L23.9499 24.85C24.0874 25.2375 24.4499 25.475 24.8374 25.475C24.9374 25.475 25.0499 25.4625 25.1499 25.425C25.6374 25.25 25.8874 24.7125 25.7124 24.225L25.7249 24.2125ZM18.4249 20.8L20.4749 15.0625L22.5249 20.8H18.4249ZM15.2374 9.81248C12.4124 14.275 9.8624 16.975 6.7624 18.775C6.6124 18.8625 6.4499 18.9 6.2999 18.9C5.9749 18.9 5.6624 18.7375 5.4874 18.4375C5.2249 17.9875 5.3749 17.4125 5.8249 17.1625C8.44989 15.6375 10.5999 13.45 13.0124 9.82498H5.1499C4.6374 9.82498 4.2124 9.39998 4.2124 8.88748C4.2124 8.37498 4.6374 7.94998 5.1499 7.94998H9.8374V5.47498C9.8374 4.96248 10.2624 4.53748 10.7749 4.53748C11.2874 4.53748 11.7124 4.96248 11.7124 5.47498V7.94998H16.3999C16.9124 7.94998 17.3374 8.37498 17.3374 8.88748C17.3374 9.39998 16.9124 9.82498 16.3999 9.82498H15.2249L15.2374 9.81248ZM15.2874 18.9C15.1249 18.9 14.9624 18.8625 14.8124 18.775C13.9999 18.3 13.2124 17.775 12.4749 17.225C12.0624 16.9125 11.9749 16.325 12.2874 15.9125C12.5999 15.5 13.1874 15.4125 13.5999 15.725C14.2749 16.2375 15.0124 16.7125 15.7624 17.15C16.2124 17.4125 16.3624 17.9875 16.0999 18.4375C15.9249 18.7375 15.6124 18.9 15.2874 18.9Z" fill="white"/>
</svg>
