<svg width="24" height="24" viewBox="0 0 24 24" fill="none" xmlns="http://www.w3.org/2000/svg">
<path d="M12 2C8.13425 2 5 5.35813 5 9.5C5 11.1309 5.49904 12.6275 6.32854 13.8531C6.34342 13.8825 6.34575 13.9153 6.36267 13.9434L11.0293 21.4434C11.2457 21.7913 11.6103 22 12 22C12.3897 22 12.7542 21.7913 12.9707 21.4434L17.6373 13.9434C17.6545 13.9153 17.6566 13.8825 17.6715 13.8531C18.501 12.6275 19 11.1309 19 9.5C19 5.35813 15.8657 2 12 2ZM12 12C10.7114 12 9.66667 10.8806 9.66667 9.5C9.66667 8.11937 10.7114 7 12 7C13.2886 7 14.3333 8.11937 14.3333 9.5C14.3333 10.8806 13.2886 12 12 12Z" fill="#CF7475"/>
</svg>
