<svg width="17" height="16" viewBox="0 0 17 16" fill="none" xmlns="http://www.w3.org/2000/svg">
<path d="M14.6666 7.99998H6.74992M12.9999 10.5L15.4999 7.99998L12.9999 5.49998M8.83325 3.83331V2.99998C8.83325 2.55795 8.65766 2.13403 8.3451 1.82147C8.03254 1.50891 7.60861 1.33331 7.16659 1.33331H2.99992C2.55789 1.33331 2.13397 1.50891 1.82141 1.82147C1.50885 2.13403 1.33325 2.55795 1.33325 2.99998V13C1.33325 13.442 1.50885 13.8659 1.82141 14.1785C2.13397 14.4911 2.55789 14.6666 2.99992 14.6666H7.16659C7.60861 14.6666 8.03254 14.4911 8.3451 14.1785C8.65766 13.8659 8.83325 13.442 8.83325 13V12.1666" stroke="black" stroke-width="2" stroke-linecap="round" stroke-linejoin="round"/>
</svg>
