<svg width="24" height="24" viewBox="0 0 24 24" fill="none" xmlns="http://www.w3.org/2000/svg">
<path d="M18.6776 14.0206L17.7675 12.5559C17.5764 12.2294 17.4035 11.6118 17.4035 11.25V9.01765C17.4035 6.94412 16.1476 5.15294 14.3366 4.31471C13.8634 3.50294 12.9897 3 11.9887 3C10.9967 3 10.1049 3.52059 9.63165 4.34118C7.85704 5.19706 6.62846 6.97059 6.62846 9.01765V11.25C6.62846 11.6118 6.45555 12.2294 6.26443 12.5471L5.34527 14.0206C4.98125 14.6118 4.89934 15.2647 5.12686 15.8647C5.34527 16.4559 5.86401 16.9147 6.53745 17.1353C8.30297 17.7176 10.1595 18 12.016 18C13.8725 18 15.729 17.7176 17.4945 17.1441C18.1316 16.9412 18.623 16.4735 18.8596 15.8647C19.0962 15.2559 19.0325 14.5853 18.6776 14.0206Z" fill="black"/>
<path d="M15 19.01C14.554 20.17 13.3752 21 11.9947 21C11.1558 21 10.3274 20.68 9.74336 20.11C9.40354 19.81 9.14867 19.41 9 19C9.13805 19.02 9.27611 19.03 9.42478 19.05C9.66902 19.08 9.9239 19.11 10.1788 19.13C10.7841 19.18 11.4 19.21 12.0159 19.21C12.6212 19.21 13.2266 19.18 13.8212 19.13C14.0442 19.11 14.2673 19.1 14.4796 19.07C14.6496 19.05 14.8195 19.03 15 19.01Z" fill="black"/>
</svg>
