<svg width="20" height="20" viewBox="0 0 20 20" fill="none" xmlns="http://www.w3.org/2000/svg">
<path d="M10 1C5.02826 1 1 5.03099 1 10C1 14.969 5.03099 19 10 19C14.9717 19 19 14.969 19 10C19 5.03099 14.969 1 10 1ZM10 17.0036C6.13856 17.0036 2.99909 13.8642 2.99909 10.0027C2.99909 6.14129 6.13856 3.00182 10 3.00182C13.8614 3.00182 17.0009 6.14129 17.0009 10.0027C17.0009 13.8642 13.8587 17.0036 10 17.0036Z" fill="black"/>
<path d="M11.1254 6H9V10.5803L12.4988 14L14 12.5328L11.1254 9.72331V6Z" fill="black"/>
</svg>
