<svg width="20" height="20" viewBox="0 0 20 20" fill="none" xmlns="http://www.w3.org/2000/svg">
<path fill-rule="evenodd" clip-rule="evenodd" d="M11.899 1.79355C11.5904 1.66669 11.1992 1.66669 10.4167 1.66669C9.63416 1.66669 9.24291 1.66669 8.93433 1.79355C8.52283 1.96271 8.19591 2.28717 8.02546 2.69555C7.94766 2.88197 7.91721 3.09877 7.90529 3.41501C7.88778 3.87975 7.64763 4.30993 7.24181 4.54246C6.83598 4.77499 6.34053 4.7663 5.92624 4.54899C5.64431 4.4011 5.43991 4.31887 5.23832 4.29254C4.79674 4.23484 4.35015 4.3536 3.9968 4.62269C3.73178 4.8245 3.53616 5.16077 3.14491 5.8333C2.75367 6.50583 2.55806 6.84209 2.51446 7.17078C2.45631 7.60902 2.57598 8.05224 2.84712 8.40294C2.97088 8.56302 3.14481 8.69752 3.41475 8.86585C3.81159 9.11335 4.06693 9.53494 4.06691 10C4.06688 10.4651 3.81155 10.8866 3.41475 11.134C3.14476 11.3024 2.97081 11.437 2.84704 11.5971C2.5759 11.9478 2.45624 12.3909 2.51437 12.8292C2.55797 13.1579 2.7536 13.4942 3.14483 14.1667C3.53607 14.8392 3.7317 15.1755 3.99671 15.3773C4.35006 15.6464 4.79666 15.7651 5.23824 15.7074C5.43981 15.6811 5.64421 15.5989 5.92611 15.451C6.34043 15.2337 6.83591 15.225 7.24176 15.4575C7.64761 15.6901 7.88777 16.1203 7.90529 16.5851C7.91721 16.9013 7.94766 17.1181 8.02546 17.3045C8.19591 17.7129 8.52283 18.0374 8.93433 18.2065C9.24291 18.3334 9.63416 18.3334 10.4167 18.3334C11.1992 18.3334 11.5904 18.3334 11.899 18.2065C12.3105 18.0374 12.6374 17.7129 12.8078 17.3045C12.8857 17.1181 12.9162 16.9013 12.9281 16.585C12.9456 16.1203 13.1857 15.6901 13.5915 15.4575C13.9973 15.2249 14.4928 15.2337 14.9072 15.451C15.1891 15.5989 15.3934 15.681 15.595 15.7074C16.0366 15.7651 16.4832 15.6464 16.8365 15.3773C17.1016 15.1754 17.2972 14.8392 17.6884 14.1666C18.0797 13.4941 18.2752 13.1579 18.3189 12.8292C18.377 12.3909 18.2573 11.9477 17.9862 11.597C17.8624 11.4369 17.6885 11.3024 17.4185 11.134C17.0217 10.8866 16.7664 10.465 16.7664 9.99994C16.7664 9.53485 17.0217 9.11344 17.4185 8.86602C17.6886 8.6976 17.8625 8.5631 17.9863 8.40294C18.2574 8.0523 18.3771 7.60908 18.319 7.17083C18.2753 6.84215 18.0797 6.50588 17.6885 5.83335C17.2972 5.16083 17.1017 4.82456 16.8366 4.62275C16.4832 4.35365 16.0367 4.2349 15.5951 4.2926C15.3935 4.31893 15.1891 4.40115 14.9072 4.54902C14.4929 4.76635 13.9974 4.77504 13.5916 4.54249C13.1857 4.30995 12.9456 3.87974 12.928 3.41497C12.9161 3.09875 12.8857 2.88196 12.8078 2.69555C12.6374 2.28717 12.3105 1.96271 11.899 1.79355ZM10.4167 12.5C11.8079 12.5 12.9357 11.3808 12.9357 10C12.9357 8.61927 11.8079 7.50002 10.4167 7.50002C9.02541 7.50002 7.89763 8.61927 7.89763 10C7.89763 11.3808 9.02541 12.5 10.4167 12.5Z" fill="black"/>
</svg>
