<svg width="38" height="24" viewBox="0 0 38 24" fill="none" xmlns="http://www.w3.org/2000/svg">
<g clip-path="url(#clip0_632_8691)">
<path d="M38 0H0V24H38V0Z" fill="#DC4437"/>
<path d="M17.5 9.32007L18.28 10.9801L20 11.2401L18.76 12.5201L19.04 14.3201L17.5 13.4801L15.96 14.3201L16.26 12.5201L15 11.2401L16.74 10.9801L17.5 9.32007Z" fill="white"/>
<path d="M17.14 7.57997C17.14 7.57997 17.1 7.57997 17.04 7.55997C16.98 7.53997 16.88 7.51997 16.78 7.47997C16.66 7.43997 16.52 7.37997 16.36 7.35997C16.28 7.33997 16.2 7.33997 16.1 7.31997C16.02 7.29997 15.94 7.27997 15.82 7.27997C15.42 7.21997 14.96 7.15997 14.46 7.19997C13.96 7.21997 13.44 7.29997 12.92 7.45997C12.86 7.47997 12.8 7.49997 12.72 7.51997H12.7C12.68 7.51997 12.88 7.51997 12.78 7.51997H12.76L12.7 7.53997L12.6 7.55997C12.5 7.57997 12.42 7.61997 12.32 7.63997L12.18 7.67997C12.14 7.69997 12.14 7.71997 12.1 7.71997C12.06 7.75997 12 7.77997 11.96 7.79997L11.9 7.83997L11.86 7.85997L11.82 7.87997C11.7 7.95997 11.58 8.01997 11.48 8.09997C11.04 8.39997 10.64 8.75997 10.32 9.17997L10.2 9.33997C10.18 9.35997 10.16 9.39997 10.14 9.41997C10.18 9.37997 10.04 9.51997 10.22 9.31997L10.2 9.33997V9.39997L10.14 9.45997L9.94002 9.73997C9.84002 9.85997 9.86002 9.87997 9.84002 9.91997C9.82002 9.95997 9.82002 9.99997 9.80002 10.02C9.80002 10.04 9.78002 10.08 9.76002 10.1L9.74002 10.2L9.66002 10.36C9.64002 10.42 9.62002 10.48 9.60002 10.54C9.50002 10.78 9.48002 11.02 9.42002 11.26C9.40002 11.38 9.40002 11.5 9.36002 11.62C9.36002 11.68 9.36002 11.74 9.36002 11.8V11.9V11.94V11.96V11.98C9.36002 11.92 9.36002 12.14 9.36002 11.84L9.38002 12.2V12.38V12.46C9.38002 12.48 9.38002 12.5 9.38002 12.5V12.52C9.40002 12.56 9.40002 12.58 9.40002 12.62C9.40002 12.66 9.40002 12.68 9.42002 12.74C9.48002 12.98 9.50002 13.22 9.60002 13.46C9.62002 13.52 9.64002 13.58 9.66002 13.64C9.68002 13.7 9.72002 13.76 9.74002 13.82C9.76002 13.88 9.78002 13.94 9.82002 14L9.92002 14.16C9.98002 14.28 10.06 14.38 10.12 14.48L10.14 14.52L10.16 14.54V14.56C9.98002 14.38 10.12 14.52 10.08 14.48L10.18 14.6C10.26 14.68 10.32 14.78 10.4 14.86L10.48 14.96L10.52 15C10.54 15.04 10.58 15.06 10.6 15.1C10.6 15.12 10.64 15.14 10.66 15.16C10.68 15.18 10.7 15.2 10.74 15.22L10.88 15.36C10.98 15.44 11.08 15.54 11.18 15.62C11.28 15.7 11.4 15.76 11.5 15.86C11.94 16.16 12.46 16.38 12.96 16.54C13.14 16.58 13.34 16.62 13.42 16.64C13.52 16.66 13.62 16.7 13.74 16.72C13.88 16.74 14 16.76 14.12 16.76C14.24 16.78 14.36 16.78 14.5 16.78C15 16.8 15.46 16.74 15.86 16.7C15.96 16.68 16.04 16.66 16.14 16.64C16.24 16.62 16.32 16.6 16.4 16.58C16.56 16.56 16.7 16.5 16.8 16.48C16.9 16.44 17 16.42 17.06 16.4C17.12 16.38 17.16 16.38 17.16 16.38L17.34 16.32L17.52 16.5L17.4 16.62C17.4 16.62 17.32 16.7 17.14 16.86C16.98 17.02 16.72 17.24 16.38 17.48C16.02 17.72 15.58 17.98 15.02 18.2C14.74 18.32 14.44 18.4 14.12 18.48C13.78 18.54 13.42 18.62 13.08 18.62C12.34 18.66 11.54 18.6 10.72 18.34C9.90002 18.1 9.10002 17.68 8.38002 17.06C7.68002 16.48 7.06002 15.7 6.66002 14.82C6.44002 14.38 6.30002 13.9 6.18002 13.42C6.12002 13.18 6.10002 12.92 6.06002 12.68C6.04002 12.44 6.04002 12.2 6.02002 11.96C6.02002 11.92 6.02002 11.94 6.02002 11.94V11.92V11.9V11.86V11.76L6.04002 11.58C6.04002 11.46 6.04002 11.34 6.06002 11.2C6.10002 10.96 6.12002 10.7 6.18002 10.46C6.30002 9.97997 6.44002 9.49997 6.66002 9.05997L6.82002 8.73997C6.88002 8.63997 6.94002 8.53997 7.00002 8.41997C7.06002 8.31997 7.12002 8.21997 7.20002 8.11997L7.42002 7.81997C7.56002 7.61997 7.72002 7.45997 7.88002 7.29997L8.00002 7.15997L8.14002 7.03997C8.22002 6.95997 8.32002 6.87997 8.40002 6.79997C9.10002 6.19997 9.92002 5.77997 10.74 5.51997C10.94 5.45997 11.14 5.41997 11.34 5.35997C11.54 5.31997 11.76 5.29997 11.96 5.25997L12.12 5.23997H12.26C12.36 5.23997 12.44 5.23997 12.54 5.21997H12.68H12.74H12.76H12.78H12.82C12.92 5.21997 13 5.23997 13.1 5.23997C13.46 5.23997 13.82 5.31997 14.14 5.37997C14.46 5.47997 14.78 5.53997 15.04 5.65997C15.6 5.85997 16.04 6.13997 16.4 6.37997C16.74 6.63997 17.02 6.83997 17.16 6.99997C17.32 7.15997 17.4 7.23997 17.4 7.23997L17.52 7.35997L17.36 7.53997L17.14 7.57997Z" fill="white"/>
</g>
<defs>
<clipPath id="clip0_632_8691">
<rect width="38" height="24" rx="2" fill="white"/>
</clipPath>
</defs>
</svg>
