<svg width="100" height="98" viewBox="0 0 100 98" fill="none" xmlns="http://www.w3.org/2000/svg">
<path d="M46.1511 67.1886L38.1023 60.4179L30.3509 53.898L37.2393 46.0331L44.364 52.0255L61.1114 30.8114L69.649 36.9277L46.1511 67.1886ZM77.9188 37.4417C76.3934 33.9051 74.2088 30.7297 71.4259 28.003C68.6429 25.2753 65.4025 23.1347 61.794 21.6397C58.0587 20.09 54.0912 19.306 49.9999 19.306C45.9086 19.306 41.9411 20.09 38.2058 21.6397C34.5972 23.1347 31.357 25.2753 28.5739 28.003C25.791 30.7297 23.6065 33.9051 22.0811 37.4417C20.4999 41.1023 19.6997 44.9906 19.6997 49C19.6997 53.0093 20.4999 56.8976 22.0811 60.5582C23.6065 64.0948 25.791 67.2702 28.5739 69.9979C31.357 72.7246 34.5972 74.8652 38.2058 76.3602C41.9411 77.91 45.9086 78.694 49.9999 78.694C54.0912 78.694 58.0587 77.91 61.794 76.3602C65.4025 74.8652 68.6429 72.7246 71.4259 69.9979C74.2088 67.2702 76.3934 64.0948 77.9188 60.5582C79.4999 56.8976 80.3001 53.0093 80.3001 49C80.3001 44.9906 79.4999 41.1023 77.9188 37.4417Z" fill="#792532"/>
<path d="M49.9999 83.8428C30.3641 83.8428 14.4462 68.2435 14.4462 49C14.4462 29.7565 30.3641 14.1572 49.9999 14.1572C69.6359 14.1572 85.5537 29.7565 85.5537 49C85.5537 68.2435 69.6359 83.8428 49.9999 83.8428ZM100 49.0231L94.4157 40.3635L96.2049 30.2724L87.6734 24.3588L85.3691 14.3714L75.1764 12.1155L69.1561 3.74321L58.857 5.46974L50.0233 0L41.1876 5.47263L30.8904 3.71919L24.8559 12.0799L14.6643 14.3378L12.3631 24.3271L3.81948 30.2272L5.58114 40.3203L0 48.9769L5.58418 57.6365L3.79516 67.7276L12.3265 73.6412L14.6308 83.6286L24.8235 85.8845L30.8438 94.2568L41.143 92.5303L49.9766 98L58.8124 92.5274L69.1095 94.2808L75.144 85.9201L85.3357 83.6622L87.6369 73.6729L96.1804 67.7728L94.4186 57.6797L100 49.0231Z" fill="#792532"/>
</svg>
