<svg width="24" height="24" viewBox="0 0 24 24" fill="none" xmlns="http://www.w3.org/2000/svg">
<g clip-path="url(#clip0_221_15458)">
<path d="M17.9559 7.37951C17.2387 7.09202 17.0315 6.91817 17.0315 6.60423C17.0315 6.353 17.2218 6.05949 17.7583 6.05949C18.2328 6.05949 18.5968 6.2466 18.6 6.24822C18.6383 6.26865 18.6813 6.27954 18.7238 6.27954C18.8276 6.27954 18.9195 6.2167 18.9576 6.11943L19.0879 5.78621C19.1333 5.66479 19.0645 5.55899 18.9767 5.52104C18.6845 5.39387 18.1135 5.29545 18.1077 5.29443C18.0985 5.29281 18.0665 5.28598 18.0665 5.24857L18.0647 4.76518C18.0647 4.61961 17.9431 4.5011 17.7939 4.5011H17.56C17.411 4.5011 17.2895 4.61954 17.2895 4.76525L17.2901 5.27346C17.2901 5.31243 17.2479 5.32934 17.2324 5.33292C16.5117 5.50461 16.0613 6.03257 16.0613 6.69853C16.0613 7.52873 16.7475 7.90389 17.4885 8.18549C18.0808 8.41806 18.3225 8.65386 18.3225 8.99973C18.3225 9.3761 17.9803 9.63897 17.49 9.63897C17.0713 9.63897 16.5047 9.3736 16.4991 9.3709C16.4629 9.35371 16.4244 9.34506 16.3849 9.34506C16.2771 9.34506 16.1832 9.41026 16.1457 9.51126L16.0212 9.84826C15.977 9.97408 16.0451 10.0762 16.1323 10.1217C16.4802 10.3029 17.1536 10.4091 17.1835 10.4138C17.1916 10.4149 17.2326 10.4293 17.2326 10.4668V10.9728C17.2326 11.1184 17.3541 11.2369 17.5034 11.2369H17.7451C17.8944 11.2369 18.016 11.1184 18.016 10.9728V10.4403C18.016 10.3905 18.0527 10.3861 18.0603 10.3843C18.8281 10.2118 19.3011 9.65 19.3011 8.9446C19.3009 8.22006 18.8985 7.75189 17.9559 7.37951Z" fill="white"/>
<path d="M17.6539 1.52258C14.1488 1.52258 11.3076 4.36399 11.3076 7.86885C11.3076 11.3738 14.1488 14.2153 17.6539 14.2153C21.1588 14.2153 24.0001 11.3738 24.0001 7.86885C24.0001 4.36399 21.1588 1.52258 17.6539 1.52258ZM17.6539 12.7445C14.9611 12.7445 12.7783 10.5615 12.7783 7.86892C12.7783 5.17633 14.9611 2.99344 17.6539 2.99344C20.3465 2.99344 22.5292 5.17633 22.5292 7.86892C22.5292 10.5615 20.3465 12.7445 17.6539 12.7445Z" fill="white"/>
<path d="M22.7105 17.2906C21.361 18.0355 19.5049 18.7242 17.6539 19.0145C16.007 19.2727 12.9088 18.6499 12.9088 17.9142C12.9088 17.6355 15.6261 18.6011 17.2698 18.1626C18.5302 17.8263 18.3513 16.6473 17.6657 16.4917C16.9841 16.337 12.9909 14.8742 11.2852 14.8237C10.4818 14.8 8.49809 15.1031 7.53821 15.2595C7.20939 15.313 7.00321 15.3071 6.98265 15.6218C6.88713 17.0842 6.69888 20.0749 6.59626 21.6371C6.5941 21.6701 6.63996 22.114 7.00625 21.8016C7.40718 21.4598 7.96951 21.0808 8.48963 21.1988C9.30563 21.3839 16.3651 22.6772 17.3388 22.4509C18.7318 22.1271 22.6752 19.7902 23.4312 19.0638C24.6031 17.9377 23.6921 16.7489 22.7105 17.2906Z" fill="white"/>
<path d="M5.03453 15.2024L1.33627 15.0202C1.05074 15.0061 0.759128 15.2213 0.688169 15.4982L0.0157149 21.6034C-0.0551766 21.8804 0.120564 22.116 0.406227 22.1271L4.50481 22.1266C4.79054 22.1377 5.04204 21.9135 5.06396 21.6284L5.51406 15.7462C5.53585 15.4612 5.32006 15.2165 5.03453 15.2024ZM2.85733 21.3178C2.29256 21.3178 1.83481 20.86 1.83481 20.2953C1.83481 19.7305 2.29263 19.2728 2.85733 19.2728C3.42202 19.2728 3.87984 19.7306 3.87984 20.2953C3.87984 20.8601 3.42209 21.3178 2.85733 21.3178Z" fill="white"/>
</g>
<defs>
<clipPath id="clip0_221_15458">
<rect width="24" height="24" fill="white"/>
</clipPath>
</defs>
</svg>
