<svg width="24" height="24" viewBox="0 0 24 24" fill="none" xmlns="http://www.w3.org/2000/svg">
<path d="M3.68629 5.575C4.75879 5.575 5.62766 4.70542 5.62766 3.63372C5.62766 2.56089 4.75879 1.69202 3.68629 1.69202C2.61346 1.69202 1.74463 2.56089 1.74463 3.63372C1.74458 4.70542 2.61346 5.575 3.68629 5.575Z" fill="white"/>
<path d="M11.9863 10.7217V10.7246C11.991 10.7246 11.9954 10.7232 12 10.7232C12.0048 10.7232 12.0091 10.7246 12.0138 10.7246V10.7217C12.7433 10.7069 13.3302 10.1135 13.3302 9.38107C13.3302 8.64757 12.7433 8.05456 12.0138 8.0397V8.03674C12.0091 8.03674 12.0047 8.0382 12 8.0382C11.9954 8.0382 11.991 8.03674 11.9863 8.03674V8.0397C11.2567 8.05456 10.6699 8.64757 10.6699 9.38107C10.6699 10.1135 11.2567 10.7069 11.9863 10.7217Z" fill="white"/>
<path d="M20.3137 5.575C21.3865 5.575 22.2554 4.70542 22.2554 3.63372C22.2554 2.56089 21.3865 1.69202 20.3137 1.69202C19.2412 1.69202 18.3723 2.56089 18.3723 3.63372C18.3724 4.70542 19.2412 5.575 20.3137 5.575Z" fill="white"/>
<path d="M22.0358 6.49463H20.3337H19.471C18.4816 6.49463 17.5757 7.04921 17.1257 7.93004L15.5557 12.5222C15.5016 12.6275 15.4011 12.7022 15.2842 12.723C15.1673 12.7437 15.0475 12.7085 14.9601 12.6275L13.9834 11.7819C13.6912 11.5115 13.308 11.3613 12.9098 11.3613H12H11.0902C10.692 11.3613 10.3088 11.5115 10.0166 11.7819L9.03999 12.6275C8.95252 12.7085 8.83275 12.7437 8.71589 12.723C8.59908 12.7022 8.49853 12.6275 8.44444 12.5222L6.87436 7.93004C6.42436 7.04921 5.51845 6.49463 4.52911 6.49463H3.66633H1.96416C1.02347 6.49463 0 7.5181 0 8.45921V14.9847C0 15.4551 0.381094 15.8365 0.851438 15.8365C1.08295 15.8365 0.851438 15.8365 1.44591 15.8365L1.76963 21.4017C1.76963 21.9022 2.17575 22.3079 2.67619 22.3079C2.88741 22.3079 3.27684 22.3079 3.66628 22.3079C4.05572 22.3079 4.44516 22.3079 4.65638 22.3079C5.15681 22.3079 5.56294 21.9022 5.56294 21.4017L5.88666 15.8365L5.88267 11.8631C5.88267 11.8003 5.92552 11.7462 5.98683 11.731C6.04819 11.7165 6.11095 11.7455 6.13964 11.8014L7.3852 14.8671C7.53549 15.1603 7.8142 15.3665 8.13867 15.4242C8.46314 15.4819 8.79595 15.3846 9.03802 15.1611L10.2299 14.2831C10.2698 14.2465 10.3275 14.237 10.3769 14.2577C10.4266 14.2799 10.4586 14.3289 10.4586 14.3826L10.4629 17.8283L10.6868 21.6808C10.6868 22.027 10.9681 22.3079 11.3147 22.3079C11.4607 22.3079 11.7303 22.3079 12 22.3079C12.2696 22.3079 12.5393 22.3079 12.6852 22.3079C13.0318 22.3079 13.313 22.027 13.313 21.6808L13.537 17.8283L13.5413 14.3826C13.5413 14.3288 13.5733 14.2799 13.623 14.2577C13.6724 14.237 13.7301 14.2465 13.77 14.2831L14.9619 15.1611C15.204 15.3846 15.5368 15.4819 15.8612 15.4242C16.1857 15.3665 16.4644 15.1603 16.6147 14.8671L17.8603 11.8014C17.8889 11.7455 17.9517 11.7165 18.013 11.731C18.0744 11.7462 18.1172 11.8003 18.1172 11.8631L18.1132 15.8365L18.4369 21.4017C18.4369 21.9022 18.8431 22.3079 19.3435 22.3079C19.5548 22.3079 19.9442 22.3079 20.3336 22.3079C20.7231 22.3079 21.1125 22.3079 21.3237 22.3079C21.8242 22.3079 22.2303 21.9022 22.2303 21.4017L22.5541 15.8365C23.1485 15.8365 22.917 15.8365 23.1485 15.8365C23.6189 15.8365 24 15.4551 24 14.9847V8.45921C24 7.5181 22.9765 6.49463 22.0358 6.49463Z" fill="white"/>
</svg>
