<svg width="121" height="120" viewBox="0 0 121 120" fill="none" xmlns="http://www.w3.org/2000/svg">
<rect x="0.333252" width="120" height="120" rx="20" fill="#CF7475"/>
<path d="M75.7969 63.9844C75.4922 63.0703 74.625 62.3906 73.6641 62.3906H72.5625V36.0703C72.5625 33.3516 70.3828 31.1719 67.6641 31.1719H41.3906C38.6719 31.1719 36.4922 33.3516 36.4922 36.0703V78.4922C36.4922 81.2109 38.6719 83.3906 41.3906 83.3906H67.6172C67.9219 83.3906 68.1562 83.6484 68.1562 83.9297C68.1562 84.2344 67.8984 84.4688 67.6172 84.4688H57.1875L65.2734 89.1562H83.5312L75.7969 63.9844ZM54.5625 81.3516C53.8359 81.3516 53.2969 80.8125 53.2969 80.0859C53.2969 79.3594 53.8359 78.8203 54.5625 78.8203C55.2891 78.8203 55.8281 79.3594 55.8281 80.0859C55.8281 80.8125 55.3125 81.3516 54.5625 81.3516ZM69.0234 62.4141H64.2891C63.0703 62.4141 62.0391 63.4453 62.0391 64.6641C62.0391 65.8828 63.0703 66.9141 64.2891 66.9141H69.0234V76.7578H40.0781V37.7578H69.0234V62.4141ZM60.7969 50.4844L55.0781 53.5312L50.1797 43.5L43.0078 57.4922H65.3906L60.7969 50.4844ZM62.5547 44.2266C63.9609 44.2266 65.1094 45.375 65.1094 46.7813C65.1094 48.1875 63.9609 49.3359 62.5547 49.3359C61.1484 49.3359 60 48.1875 60 46.7813C60 45.375 61.1484 44.2266 62.5547 44.2266ZM41.7422 58.3594H67.4062V60.0937H41.7422V58.3594Z" fill="white"/>
</svg>
