<svg width="121" height="120" viewBox="0 0 121 120" fill="none" xmlns="http://www.w3.org/2000/svg">
<rect x="0.666504" width="120" height="120" rx="20" fill="#8DAE8E"/>
<path d="M42.2781 44.2741C42.2781 40.9134 44.9669 38.2031 48.3492 38.2031C51.7099 38.2031 54.4202 40.9134 54.4202 44.2741C54.3986 47.6566 51.6883 50.3452 48.3492 50.3452C44.9885 50.3452 42.2781 47.6348 42.2781 44.2741ZM75.7656 70.3125H64.75V60.4688C64.75 55.6732 60.5592 51.7969 55.8438 51.7969H41.0781C35.9013 51.7969 31.4664 56.2828 31.4688 60.7031V78.75C31.4627 80.7499 32.8753 81.7943 34.2813 81.7969C35.6908 81.7995 37.0938 80.7551 37.0938 78.75V61.1719H38.9688V81.7969H57.25V61.1719H59.125L59.144 72.9773C59.1316 75.0232 60.396 75.8944 61.7031 75.9375H75.7656C79.6007 75.9375 79.6007 70.3125 75.7656 70.3125ZM75.1141 62.5102V64.0594H71.1508V62.5102H75.1141ZM82.3914 62.5102V64.0594H76.6563V62.5102H82.3914ZM82.3914 62.5102V64.0594H76.6563V62.5102H82.3914ZM71.1508 62.5102H75.1141V64.0594H71.1508V62.5102ZM90.5313 52.6852V65.5172C90.5313 66.4805 89.6852 67.2656 88.6352 67.2656H69.693C68.643 67.2656 67.7969 66.4805 67.7969 65.5172V52.6852C67.7969 51.7219 68.643 50.9391 69.693 50.9391H88.6422C89.6922 50.9391 90.5383 51.7219 90.5313 52.6852ZM69.5125 54.4336H88.8156V52.9055C88.8156 52.7883 88.7149 52.6852 88.5813 52.6852H69.7469C69.6227 52.6852 69.5125 52.7883 69.5125 52.9055V54.4336ZM88.8227 59.1023H69.5125V65.2992C69.5125 65.4164 69.6133 65.5172 69.7469 65.5172H88.5883C88.7149 65.5172 88.8227 65.4164 88.8227 65.2992V59.1023ZM82.3914 64.0594H76.6563V62.5102H82.3914V64.0594ZM75.1141 64.0594H71.1508V62.5102H75.1141V64.0594ZM75.1141 62.5102V64.0594H71.1508V62.5102H75.1141ZM82.3914 62.5102V64.0594H76.6563V62.5102H82.3914Z" fill="white"/>
<path d="M75.1142 62.5103H71.1509V64.0595H75.1142V62.5103Z" fill="white"/>
<path d="M82.3914 62.5103H76.6562V64.0595H82.3914V62.5103Z" fill="white"/>
</svg>
