<svg width="120" height="120" viewBox="0 0 120 120" fill="none" xmlns="http://www.w3.org/2000/svg">
<rect width="120" height="120" rx="20" fill="#E8C08A"/>
<path d="M62.5158 67.9124L70.6224 71.3123C71.802 71.8326 72.5768 73.0122 72.5883 74.2959L72.2068 86.8431H59.4861C59.4861 86.8431 54.8951 79.3263 54.4786 78.7945C54.2011 78.4012 54.1086 77.6613 54.1086 77.6613C53.9698 77.002 53.9583 70.7343 53.9583 70.7343C53.9583 69.6935 54.8372 68.8263 55.8664 68.8263C56.9072 68.8263 57.7744 69.7052 57.7744 70.7343V75.2559C57.7744 75.5104 57.9711 75.7185 58.2371 75.7185C58.295 75.7185 58.3643 75.7071 58.4105 75.6838C58.5725 75.603 58.6997 75.441 58.6997 75.2444V59.9681C58.7576 59.0313 59.5786 58.2567 60.5616 58.2567H60.6078C61.6948 58.2567 62.5158 59.1356 62.5158 60.1647V67.9124ZM43.8631 54.6935L38.6773 48.8503L47.5756 40.8855L45.1695 38.6871L30.4934 51.8233L32.7247 54.3374L34.9873 52.2946V66.6599H44.8646V53.7895L43.8631 54.6935ZM76.6121 49.2295L68.8245 42.1408V33.9149H64.2905V37.971L59.0215 33.1567L41.319 49.0021L44.0103 52.0347L46.7396 49.5707V66.6602H56.8245V59.9678V59.9099L56.828 59.8523C56.9483 57.906 58.5879 56.3812 60.5614 56.3812H60.6075C62.6935 56.3812 64.3906 58.0783 64.3906 60.1642L64.3969 66.659L71.1708 66.666L71.1645 49.7221L73.85 52.1861L76.6121 49.2295ZM83.0506 46.135V39.3154H79.2917V42.678L74.9234 38.6868L71.3396 41.8947L79.2788 49.1214L73.9515 54.8242L73.0395 53.9875V66.6602H84.9905V52.4205L87.2168 54.4633L89.5067 52.012L83.0506 46.135Z" fill="white"/>
</svg>
