<svg width="180" height="181" viewBox="0 0 180 181" fill="none" xmlns="http://www.w3.org/2000/svg">
<g clip-path="url(#clip0_687_19884)">
<rect width="179.233" height="180.079" rx="89.6167" transform="matrix(1 0 0 -1 0.383301 180.54)" fill="#A7A7A7"/>
<path d="M161.322 27.7069C157.146 29.1208 147.396 31.4515 141.477 32.465C138.805 32.885 131.507 33.7716 125.244 34.3676C112.003 35.6762 105.981 36.638 100.523 38.2699C96.8674 39.392 96.1101 39.7963 90.3018 43.8393C83.1484 48.7892 77.9075 52.2164 71.5598 55.9237C67.2575 58.4585 63.7027 60.4038 49.7825 67.8976C39.1337 73.6254 36.1183 75.9063 35.7259 78.6054C35.4642 80.4047 36.6283 82.0071 39.8026 84.1958C43.3109 86.6168 44.5783 88.0138 45.9042 90.7789C48.9704 97.2514 49.4308 104.705 48.2428 127.793C47.3514 145.303 47.2465 154.622 47.8735 159.159C48.5411 163.923 51.2861 167.042 63.8305 177.354C76.2722 187.615 89.1369 199.518 100.094 210.886C103.066 213.964 105.909 216.656 106.393 216.873C108.407 217.681 112.408 216.462 118.56 213.093C122.794 210.769 126.628 208.424 138.516 200.745C169.626 180.72 185.916 171.844 207.031 163.412C219.562 158.398 224.329 156.96 234.521 155.135C242.489 153.684 250.672 152.779 264.597 151.827C281.867 150.627 285.681 149.932 286.231 147.917C286.896 145.368 278.941 139.14 264.658 130.927C255.389 125.647 252.224 123.901 234.516 114.711C215.545 104.86 215.308 104.716 209.841 99.8419C190.988 83.0999 178.107 65.4988 171.974 48.2543C170.303 43.5649 169.274 39.5199 168.059 33.2064C167.613 30.7161 167.012 28.2768 166.786 27.8031C166.203 26.5056 164.917 26.5023 161.322 27.7069Z" fill="#792532"/>
<path d="M33.8619 87.6319C26.5561 87.5618 13.0718 89.2761 0.187245 91.9227C-28.8711 97.8402 -58.3139 107.413 -81.6479 118.463C-89.7401 122.284 -93.4756 124.46 -99.6812 128.96C-108.474 135.325 -115.267 142.091 -125.092 154.296C-136.977 169.031 -141.12 173.5 -147.486 178.344C-155.434 184.464 -165.406 188.821 -172.775 189.44C-176.979 189.784 -184.983 188.951 -201.462 186.481C-213.548 184.65 -218.532 184.036 -221.141 184.024C-226.909 183.994 -229.73 184.943 -230.029 186.995C-230.091 187.427 -228.734 191.997 -226.992 197.211C-223.723 207.094 -222.449 212.24 -221.836 218.136C-221.056 225.415 -221.764 228.766 -225.38 234.671C-227.012 237.3 -227.726 238.924 -228.427 241.468C-231.666 253.381 -230.204 280.493 -225.525 294.586C-225.04 296.053 -223.567 299.832 -222.258 302.962C-215.546 319.005 -209.762 335.353 -190.264 393.42C-172.309 446.927 -166.983 461.372 -160.137 474.972C-155.288 484.606 -152.962 490.861 -149.095 504.469C-144.973 519.106 -142.702 524.47 -139.216 527.807C-137.184 529.756 -135.37 530.681 -132.916 531.001C-130.823 531.269 -129.433 530.809 -127.468 529.184C-122.834 525.375 -119.647 518.121 -112.595 495.664C-102.1 462.17 -96.5401 450.226 -85.4627 437.505C-68.5086 417.995 -54.2778 396.986 -43.2297 375.111C-39.523 367.822 -36.6672 361.329 -32.8416 351.706C-25.8063 333.914 -13.2179 307.007 -3.22195 288.323C8.74842 265.92 18.3521 251.955 26.6017 244.776C32.7012 239.49 41.9538 234.514 51.7938 231.315C60.326 228.513 65.1443 227.486 81.1565 225.074C93.8592 223.173 95.1513 222.883 97.0894 221.437C98.5738 220.33 98.672 220.161 98.6653 218.69C98.6267 213.393 92.1193 206.567 69.7983 188.144C52.9253 174.226 46.8324 168.342 45.1548 164.203C43.6154 160.378 43.5101 155.034 44.5348 135.596C45.9918 107.623 45.2189 97.5147 41.1584 91.5591C39.3999 88.9883 36.949 87.6398 33.8619 87.6319Z" fill="#792532"/>
<path d="M100.782 -83.1078C87.794 -80.2557 68.82 -76.4366 57.4959 -74.4083C44.0922 -71.9841 34.828 -70.722 20.2846 -69.3087C12.8996 -68.5818 3.7388 -67.5251 -0.0956965 -66.9435C-33.5458 -61.9217 -44.9976 -60.2795 -80.0782 -55.4213C-129.338 -48.6193 -143.74 -46.1566 -154.687 -42.677C-158.884 -41.3762 -160.3 -40.737 -162.243 -39.2556C-164.429 -37.6257 -164.697 -37.2972 -164.891 -35.9657C-165.09 -34.5982 -164.926 -34.2069 -163.228 -31.9757C-156.802 -23.5815 -145.334 -14.9687 -130.103 -7.20521C-115.318 0.346293 -98.9877 6.61599 -67.2266 17.0034C-31.9901 28.5208 -25.3549 31.4331 -18.5235 38.3061C-14.8076 42.0802 -14.5024 43.521 -16.2181 48.747C-17.6073 52.9915 -16.74 58.1521 -13.4178 65.1395C-11.4777 69.2434 -7.81457 75.6556 -4.81538 80.0605C-3.30826 82.3375 -3.10794 82.4769 -1.26194 82.929C6.2097 84.6401 27.8931 75.3352 59.1736 56.9157C69.9061 50.6121 77.5838 45.8488 86.494 39.9417C97.2748 32.7999 99.8388 32.107 127.66 29.1332C148.313 26.9178 154.531 25.8742 158.821 23.9257C162.679 22.1715 163.145 20.9898 162.165 15.5924C161.434 11.5173 160.872 9.81871 156.614 -1.34717C152.759 -11.4989 150.747 -17.6344 149.311 -23.9433C147.814 -30.5917 145.053 -37.3875 139.419 -48.202C131.835 -62.7912 122.028 -77.5199 116.755 -82.2185C114.964 -83.802 112.503 -85.3357 111.628 -85.3894C111.412 -85.4208 106.517 -84.3687 100.782 -83.1078Z" fill="#792532"/>
<circle cx="5" cy="5" r="5" transform="matrix(0.988647 -0.150257 -0.150257 -0.988647 103.308 74.2797)" fill="#C6C6C6"/>
<circle cx="5" cy="5" r="5" transform="matrix(0.988647 -0.150257 -0.150257 -0.988647 19.3083 125.28)" fill="#C6C6C6"/>
<circle cx="5" cy="5" r="5" transform="matrix(0.988647 -0.150257 -0.150257 -0.988647 67.3083 95.2797)" fill="#FF3E3E"/>
<circle cx="5" cy="5" r="5" transform="matrix(0.988647 -0.150257 -0.150257 -0.988647 140.308 89.2797)" fill="#449F47"/>
<circle cx="5" cy="5" r="5" transform="matrix(0.988647 -0.150257 -0.150257 -0.988647 52.3083 32.2797)" fill="#449F47"/>
<path d="M119.414 142.4L107.435 130.421L103.777 134.079C100.032 137.824 98.1592 139.696 96.1466 139.254C94.134 138.812 93.2186 136.327 91.3877 131.357L85.2812 114.783C81.6287 104.869 79.8024 99.912 82.3573 97.3572C84.9121 94.8023 89.8691 96.6286 99.7833 100.281L116.358 106.388C121.327 108.218 123.812 109.134 124.254 111.146C124.696 113.159 122.824 115.032 119.079 118.777L115.421 122.435L127.4 134.414C128.64 135.654 129.26 136.274 129.547 136.966C129.929 137.889 129.929 138.925 129.547 139.847C129.26 140.539 128.64 141.159 127.4 142.4C126.159 143.64 125.539 144.26 124.848 144.547C123.925 144.929 122.889 144.929 121.966 144.547C121.274 144.26 120.654 143.64 119.414 142.4Z" fill="white"/>
</g>
<defs>
<clipPath id="clip0_687_19884">
<rect width="179.233" height="180.079" rx="89.6167" transform="matrix(1 0 0 -1 0.383301 180.54)" fill="white"/>
</clipPath>
</defs>
</svg>
